<svg id="Layer_1" data-name="Layer 1" xmlns="http://www.w3.org/2000/svg" viewBox="0 0 615 350"><defs><style>.cls-1{fill:#88a0a5;}.cls-2{fill:#97afb2;}.cls-3{fill:#d8ad95;}.cls-4{fill:#585758;}.cls-5{fill:#e2bba1;}.cls-6{fill:#4d4c4e;}.cls-7{fill:#35434a;}.cls-8{fill:#dba;}.cls-9{fill:#eccab8;}.cls-10{fill:#f0d3c0;}.cls-11{fill:#fff;}.cls-12,.cls-25{fill:#d311af;}.cls-13{fill:#494741;}.cls-14{fill:#212020;}.cls-15{fill:#2c2c2c;}.cls-16{fill:#58595b;}.cls-17{fill:#849ba0;}.cls-18{fill:#bcbec0;}.cls-19{fill:#6b8389;}.cls-20{fill:#758b8e;}.cls-21{fill:#d4d6d5;}.cls-22{fill:#cca692;}.cls-23{fill:#020202;}.cls-24{fill:#474747;}.cls-25{opacity:0.1;isolation:isolate;}</style></defs><title>counsellingladies</title><g id="_2" data-name="2"><path class="cls-1" d="M735.16,378.54v.7c0,8.19-5.64,14.88-12.67,14.88H533.28c-4.76,0-9.16-3.17-11.32-8.16L464.91,223.19c-3.52-8.08-.11-17.93,7.22-20.87l.33-.15.7-.27c6.08-2.44,12.74.81,15.57,7.57l48.4,146.43c2.12,5.14,6.56,8.38,11.39,8.38h174c6.48,0,11.87,5.76,12.6,13.22A9.24,9.24,0,0,1,735.16,378.54Z" transform="translate(-400 -102)"/><rect class="cls-1" x="147.27" y="290.18" width="13.53" height="39.74"/><rect class="cls-1" x="303.81" y="290.18" width="13.53" height="39.74"/><path class="cls-2" d="M735.16,378.54v.7c0,8.19-5.64,14.88-12.67,14.88H533.28c-4.76,0-9.16-3.17-11.32-8.16L464.91,223.19c-3.52-8.08-.11-17.93,7.22-20.87l.33-.15,61,175.33H735.09A9.24,9.24,0,0,1,735.16,378.54Z" transform="translate(-400 -102)"/><path class="cls-3" d="M627.79,311.9l-3,.74a26.84,26.84,0,0,0,2.79-6.78c.31-1.19.65-2.56,1.7-3.11a3.74,3.74,0,0,1,3.11.32c6.43,2.65,60.89,27,65.35,28.79,5.89,2.37,12,2.74,18,4.14a111,111,0,0,0,17.77,3.05,8.91,8.91,0,0,0,3.61-.92c.85-.36,1.68-.74,2.4-1a8.19,8.19,0,0,1,.43,2.08,6.57,6.57,0,0,1-.19,2.17L737,345.94l-.09.08a8.56,8.56,0,0,1-6.49,2c-2.41-.14-4.65-1.41-7.1-1.24-2.76.18-5.33,1.57-7.95,2.36a24.2,24.2,0,0,0-4.8,1.75c-1.14.61-2.18,1.43-3.33,2-1.79.91-2.13,0-3.55-1.22a28.73,28.73,0,0,0-10.59-5.8,37.49,37.49,0,0,0-10.86-1.52c-8.56.38-18.51-1.32-26.32-5.16a71.64,71.64,0,0,1-9.66-6c-3-2.13-6.32-5.29-9.76-6.57-2.32-.86-5.11-.88-7.55-1.51l-6-1.53Z" transform="translate(-400 -102)"/><path class="cls-4" d="M704.54,354c-.62-.55-2.51-3.93-3.2-3.91,5-.2,9.21-2.72,14-4a48.71,48.71,0,0,1,8.87-.92,34.35,34.35,0,0,1,5,.11c1,.08,3.24.79,4,.45a6.49,6.49,0,0,0,3.63-3.37c.57-1.37.17-2.86.54-4.26.41-1.58,6.16-6.12,7-3.29.31,1.12-.81,3-1.2,4a47,47,0,0,1-3,6.22c-.89,1.56-2.1,4.46-3.78,5.25-3,1.39-6.16.68-9.2,0a18.32,18.32,0,0,0-7.1-.49c-1.17.2-3.42.58-4.06,1.76-1.62,3,11.74,7.76,14.42,9.07-.32.66-.61,1.32-.89,2-5.33-2.4-11.07-5.19-16.9-5.3A13,13,0,0,1,704.54,354Z" transform="translate(-400 -102)"/><path class="cls-5" d="M627.29,346.19c1.09-5.24,3-9.24,8.43-9.64,4-.3,7.51,1.15,11.33,2.05,9.25,2.19,18.83,2.49,28.22,3.62s19.08,2.54,28.64,3.35c6.29.53,12.2-.91,18.4-1.37a111.78,111.78,0,0,0,17.87-2.33,9.21,9.21,0,0,0,3.22-2c.72-.59,1.41-1.21,2-1.68a7.9,7.9,0,0,1,1,1.87,6.58,6.58,0,0,1,.4,2.13l-1.48,5.22-.07.11a8.83,8.83,0,0,1-5.71,3.79c-2.36.59-4.84,0-7.14.92-2.6,1-4.7,3.08-7,4.62a25.4,25.4,0,0,0-4.14,3.1c-.93.93-1.71,2-2.66,2.92-1.47,1.4-2,.63-3.73-.12a27.94,27.94,0,0,0-4.48-1.56,28.61,28.61,0,0,0-7.23-.87,37.24,37.24,0,0,0-10.83,1.76c-5.64,1.49-11,3-16.85,3.33-8.23.39-16.31-1.87-24.48-2.49a26.7,26.7,0,0,0-5.06.08c-2,.38-4.11.63-6.16.92a9.56,9.56,0,0,0-2.51.5,10.2,10.2,0,0,1-2.08.92,15.09,15.09,0,0,1-6.26-.55,4.77,4.77,0,0,1-2.19-1.09,4.08,4.08,0,0,1-1.05-2.79,70.1,70.1,0,0,1,.58-7.19A62,62,0,0,1,627.29,346.19Z" transform="translate(-400 -102)"/><path class="cls-6" d="M716.33,364.77c-.74-.34-3.46-3-4.11-2.8,9.41-3.33,17.16-11.8,27.26-12.79a5.52,5.52,0,0,0,4.55-4c.17-.56-.25-5.55-.63-5.24.82-.68,1.61-1.38,2.29-1.88,1.46-1,3.11-3.75,5-3.91,3-.24-.7,8.09-1.25,9.25-.66,1.38-1.11,2.86-1.71,4.28a45,45,0,0,1-3.86,6.88,1.14,1.14,0,0,1-.33.39,1.06,1.06,0,0,1-.5.09c-3.65.07-7.36-1-11-.68-1.62.2-5.54,1.68-6.19,3.43a2.27,2.27,0,0,0,.4,2.07,4.34,4.34,0,0,0,.84.87,10.75,10.75,0,0,0,3.27,1.53,64.72,64.72,0,0,0,6.93,1.8,14.1,14.1,0,0,1,3.44.65l-.52,1.84c-5.18-1-9.85-2.48-15.23-.94A12.71,12.71,0,0,1,716.33,364.77Z" transform="translate(-400 -102)"/><path class="cls-7" d="M637,303.43c-1.19-.57-2.39-1.15-3.57-1.75-2.47-1.27-6-.84-8.67-.78-7.68.17-14.81,4-21.76,7L572.1,321.53,542,333.08c-2.58,1-5.23,1.86-7.77,3-4.73,2.07-1.66,6.78-.78,10.71,1.17,5.23,2.78,10.47,5.88,14.82,6.34,8.9,19.83,10.63,29.73,10.73,6.53.07,48.87-7.14,57.78-5.73,6,1,12-.95,18.1-1.34.84-.05,1.84-.21,2.19-1a2.6,2.6,0,0,0,.09-1.36c-.29-2.55,4.39-36.06,4.49-36.59.26-1.53,1-5,1.72-8.22a47.23,47.23,0,0,1,1.67-6,48.2,48.2,0,0,1-10.5-4.79C642.12,305.87,639.57,304.66,637,303.43Z" transform="translate(-400 -102)"/><path class="cls-8" d="M509.92,215.38c3.94,1.56,7.3,2.79,10.15,3.76,10.53,3.59,14.07,3.65,14.07,3.65.33.36-.62,8.23,5.49,16A58.35,58.35,0,0,1,509.92,215.38Z" transform="translate(-400 -102)"/><path class="cls-9" d="M512.89,247.85c.51-1.49,1-3,1.37-4.53a29.65,29.65,0,0,0,.86-9.84,51.66,51.66,0,0,0-5.36-18.16l.16.06a58.35,58.35,0,0,0,29.71,23.36c.25.32.52.65.81,1,5.15,3.83,9.49,6.61,7,10.75-2,3.32-14.38,4.5-19.2,4.83l-1.91.12c-.88,0-3.15-2.61-3.88-3.19a12.28,12.28,0,0,0-3.62-2.34,4.43,4.43,0,0,0-2.74.1c-.92.28-2.68,1.58-3.55,1.45C511,251.23,512.47,249.09,512.89,247.85Z" transform="translate(-400 -102)"/><path class="cls-9" d="M621.27,309A16,16,0,0,1,623,312.1a17.85,17.85,0,0,1,1.6,3.14c.22.79-.28,1.65-1.14,1.45a2.94,2.94,0,0,1-.92-.5c-.26,1.25-1.12.87-1.72.12-1.17-1.46-1.59-3.24-3.4-3.27-1.28,0-2.62.24-3.91.35L607,314c.06,0,.44-2.84.47-3.05.26-1.65.45-2.89,2.17-3l6.36-.53a9,9,0,0,1,3.16.11A4.21,4.21,0,0,1,621.27,309Z" transform="translate(-400 -102)"/><path class="cls-10" d="M614.05,308.94a7.62,7.62,0,0,0-1.15.45c-.34.13-.85.08-1.16.24a1.64,1.64,0,0,1,1.07,0,12.76,12.76,0,0,0,2.39,0c.79,0,3.54.75,2.88,2.1s-2.3,1.1-3.19,1c-1.67-.12-3.31,1.07-4.89,1.75-4.13,1.74-8.33.5-12.35-.12l2.42-6,13.1-5.29,4,.93a16.5,16.5,0,0,1,5.13,2,4.58,4.58,0,0,1,1.38,1.83c.51.89,1,1.76,1.55,2.63.42.68,2.08,2.51,1.2,3.55-.48.56-1.51-.06-1.84-.44-1.05-1.19-2-3.51-3.35-4.23C619.27,308.37,616.26,308.43,614.05,308.94Z" transform="translate(-400 -102)"/><path class="cls-10" d="M536.4,213.43c.74-.25,1.44.59,1.58,1.4s0,1.67.17,2.46a17.1,17.1,0,0,0,1.18,2.29,4.75,4.75,0,0,1-1.43,5.07,11,11,0,0,1-4.88,2.21c-6.62,1.64-13.81,2-20-.89-5.61-2.67-9.81-7.77-13.6-12.88-2.34-3.15-4.63-6.45-5.72-10.27a17.34,17.34,0,0,1-.59-3.43c-.75-10.68,7.57-17.33,16.51-19.17,8.7-1.79,18,4,20.76,12.77.33,1,.39,2.15.78,3.16.85,2.17,3,3.29,4.76,4.45,1.18.76,4.63,2.85,3.5,4.72-.59,1-1.77,1.12-2.1,2.42a5.15,5.15,0,0,0,.55,3.42,1.22,1.22,0,0,1,.19.51C538.06,212.1,536.74,213.23,536.4,213.43Z" transform="translate(-400 -102)"/><path class="cls-11" d="M546.07,244.19s-2.63,7.61-17.72,9.28c13.52,27.27,21,39.19,21,39.19l18-2.2-2.67-20.73Z" transform="translate(-400 -102)"/><path class="cls-12" d="M538.72,237.54l3.23.11a15.54,15.54,0,0,1,10.42,4.57l17,58.29,35.76,4.68,0,11.06L571.19,318c-3.59,1.31-11.44-38.53-11.44-38.53Z" transform="translate(-400 -102)"/><path class="cls-12" d="M507.74,272.19l1.09-2.88,19.45-11.43s20.13,14.37,26.57,13.59c-.16,0-12.93-30.55-13.32-30.92a7,7,0,0,1-.82-1,3.61,3.61,0,0,1,1.15.6,12,12,0,0,1,1.2,1l2.52,2.5c1.46,1.44,2.87,2.95,4.25,4.49,2.76,3.06,5.39,6.24,8.13,9.31,2.48,2.77,4.95,5.54,7.37,8.36,1.11,1.3,2.77,2.76,3.49,4.37.95,2.14,3.28,51.35,3.28,51.35,0,.88-13.5,5.35-14.38,5.69-6.07,2.35-12.27,4.42-18.27,6.95-4.29,1.81-5.74,4.25-8,8.33-2.18-7.9-3.16-16.09-5.75-23.89-2.38-7.12-5-14.15-7.69-21.14C514.7,289,511.31,280.54,507.74,272.19Z" transform="translate(-400 -102)"/><path class="cls-13" d="M493.7,227.87l-.21-.51c-1.79-4.5-4.17-8-5.18-13a37.59,37.59,0,0,1-.09-15.7,26.27,26.27,0,0,1,13.68-17.46A24,24,0,0,1,514.8,179c8.28.88,13.14,5.74,16.62,13.37a45.47,45.47,0,0,0-5.55,3.81,11.72,11.72,0,0,0-3.48-4.9,49.08,49.08,0,0,0,2.12,6.83,20.13,20.13,0,0,0-4.85,5.26c-.06.09-3.09-2.82-4-2.07-1.26,1.08-.38,4.78-.29,6.24.43,6.35,2,10.81,4.48,16.66,1.38,3.28,2.79,6.66,3,10.25.25,4.69-2.05,8-5.38,10.85-2.24,1.88-4.53,1.91-6.23,4.74s-1.9,6.25-2.37,9.4c-.52,3.51-2.11,6.64-2.64,10-.27,1.77-1,12.15.05,13.27-4.49-5.29-5.75-12.79-6-19.89-.2-6.25.49-12.8-.75-19C498.46,238.34,495.74,233.06,493.7,227.87Z" transform="translate(-400 -102)"/><path class="cls-9" d="M596.26,316.52l9.81-2.65,8.41-2.06a4.08,4.08,0,0,1,2.44.15c2.89,1.09,5.86,1.63,8.62,3.12,1.85,1,2.69,1.65.54,3.15a3.78,3.78,0,0,1-4.44,0c.54.36,1.26.82,1.3,1.58.07,1.49-1.43,1.14-2.27,1l-5.44-.73a4.69,4.69,0,0,0-3.17.71l-6.82,4.34a5.39,5.39,0,0,1-2.74.83l-6.5.13Z" transform="translate(-400 -102)"/><path class="cls-12" d="M512.53,248.16c4.34-3.29,12.84,1.73,15.82,5.31,3.94,4.75,5.83,11.28,8.23,17.06,3.15,7.56,10.34,40.72,14.18,42.19,11.38,4.36,47,1.92,47.49,1.94l.88,11.26c-.72.08-47.72,17.46-63.18,3.42-2.5-2.26-21.92-41.1-22-41.23C502.39,269.85,504.62,254.18,512.53,248.16Z" transform="translate(-400 -102)"/><path id="_3" data-name="3" class="cls-1" d="M826.13,336.25h69.28c3.11-38.9,26.85-94.68,31.81-106a.88.88,0,0,1,1.65.05,73.5,73.5,0,0,0,3.13,7.21c-13.57,20.64-23.81,103.41-23.81,103.41v89.71h-8.84v-83.5H831.93v83.5h-8.84v-83.5h-.91v-6.21C822.18,338.34,824,336.25,826.13,336.25Z" transform="translate(-400 -102)"/><path class="cls-3" d="M797.6,324.94l2.16-2a22.17,22.17,0,0,1-6.41-1.45c-1-.4-2.2-.87-3.17-.33a4,4,0,0,0-1.47,2.68c-1.58,6.6-13.6,63.63-14.74,68.18-1.49,6-4.52,11.1-6.81,16.74a118.28,118.28,0,0,1-7.47,15.95,8.8,8.8,0,0,1-2.63,2.39c-.72.5-1.45.95-2,1.38A7.25,7.25,0,0,0,756.3,430a5.47,5.47,0,0,0,1.67,1l4.82.22.12,0a8.42,8.42,0,0,0,4.93-4.16c1.22-2,1.52-4.5,3-6.38,1.63-2.12,4-3.43,6-5.11a23.82,23.82,0,0,1,3.88-2.91c1.06-.58,2.21-1,3.26-1.58,1.63-.94,1.16-1.71,1-3.51a30.74,30.74,0,0,1,.07-4.67,31.18,31.18,0,0,1,1.5-7,39.51,39.51,0,0,1,4.81-9.56,60.11,60.11,0,0,0,10.59-24,74,74,0,0,0,.91-11c.11-3.58-.39-8,.56-11.42.64-2.34,2.14-4.59,3-6.89.71-1.88,1.43-3.76,2.14-5.63Z" transform="translate(-400 -102)"/><path class="cls-14" d="M786.24,409.52c-.06-.8-1.47-4.16-1.08-4.7a25.5,25.5,0,0,1-3.83,4.38A98.75,98.75,0,0,0,769.39,421a15.45,15.45,0,0,1-5,4,8.25,8.25,0,0,1-3,.8,3.07,3.07,0,0,1-1.09,0c-.42-.14-.75-.81-1.21-.78a.76.76,0,0,0-.48.33c-.88,1-2.26,1.49-3.31,2.25-1.23.9-6.76,4-4.88,6,.6.62,1.86.57,2.63.59a33.52,33.52,0,0,0,4.69-.26,90.76,90.76,0,0,0,10.08-1.62c3.66-.81,2.61-7.43,4.94-9.82,1.31-1.35,5.93-3.7,7.16-1.27.95,1.88-.52,5.62-.81,7.58a15.77,15.77,0,0,0-.51,3.4l1.71.08c.78-5.12.95-9.94,3.9-14.49A13.72,13.72,0,0,0,786.24,409.52Z" transform="translate(-400 -102)"/><path class="cls-5" d="M790.05,321.27a6.42,6.42,0,0,0-.64.41,8.68,8.68,0,0,0-1.81,1.82c-3.69,4.81-.12,12.24,1.5,17.43,2,6.42,3.52,13,5.62,19.38,4.09,12.46,8.56,24.86,12.2,37.47,1.74,6,1.7,11.94,2.57,18a122.21,122.21,0,0,1,1.62,17.7,9.66,9.66,0,0,1-1,3.5c-.37.82-.76,1.61-1.05,2.3a6.81,6.81,0,0,0,1.83.56,5.38,5.38,0,0,0,1.92-.06L817,437.3l.08-.08a9.12,9.12,0,0,0,2.13-6.28c0-2.39-1-4.67-.67-7.07.33-2.71,1.72-5.16,2.58-7.7a26,26,0,0,1,1.84-4.62c.61-1.09,1.4-2.06,2-3.16.91-1.7.12-2.1-.86-3.57a28.8,28.8,0,0,1-2.27-4,30.32,30.32,0,0,1-2.22-6.79,40.38,40.38,0,0,1-.69-10.8c.85-8.41,0-18.31-3-26.25a72.89,72.89,0,0,0-4.74-9.88c-1.53-2.8-4.58-5.14-2.39-8.37a31.29,31.29,0,0,0,2.36-3.25,2.82,2.82,0,0,0,.37-1.35,3.67,3.67,0,0,0-.94-2c-1.77-2.34-3.93-4.28-5.7-6.57-.67-.86-.73-1.34-1.8-1.64s-2.25.07-3.51-.59c-1.61-.86-3.09-2.68-4.88-3.1A7.18,7.18,0,0,0,790.05,321.27Z" transform="translate(-400 -102)"/><path class="cls-15" d="M826.09,405.84c-.45-.65-3.33-2.72-3.26-3.4-.49,4.92-3,8.91-4.39,13.59-1.62,5.36.86,15.11-6.07,16.41a3.84,3.84,0,0,0-1.33.38,3.13,3.13,0,0,0-1.07,1.64,30.37,30.37,0,0,1-2.6,5.45c-.55.87-2.59,3.27-.69,4,1,.37,2.71-.61,3.63-.93a39.47,39.47,0,0,0,5.69-2.6c1.44-.79,4.08-1.8,4.89-3.41,1.93-3.88.41-7.77-.11-11.73-.31-2.41,1.27-6.58,4.27-5.86,3.73.9,4.24,9.34,5.35,12.37.6-.27,1.21-.52,1.82-.75-1.79-5.4-3.91-11.23-3.66-17A13.64,13.64,0,0,0,826.09,405.84Z" transform="translate(-400 -102)"/><path class="cls-12" d="M896.27,310.86c-.26-1.65-2.89-12.37-4.61-15.87-.35-.71-.66-1.13-.91-1.11l-41.07,3.63-24.17,3.76-18.18,2.83c-3.25.5-10.69.11-13.41,1.58a6.21,6.21,0,0,0-1.86,1.92l-3.79,5.31c-9.27,13,7.58,18.68,16.14,24.4,1.77,1.19,3.6,2.18,5.43,3.24.82.47,1.42,1.14,2.28.91,1.65-.43,2.48-4.87,3.88-4.88h.51l8.16-.1s50.1-.52,52.45-.52l12.94.07.12-.07a11.11,11.11,0,0,0,4.4-5C897.29,325.08,897.24,317.15,896.27,310.86Z" transform="translate(-400 -102)"/><path class="cls-5" d="M804.93,287c-2.93-.13-6.79-.7-9.62-.09-.84.18-6.26,1.84-7.36,1.89a.33.33,0,0,0-.26.08.35.35,0,0,0-.07.2c-.21,2.88,6.59.52,7.88,1.3-1,.8-2.83,1-4,1.32s-6.72,1.72-6.26,3.05c.24.67,1.25.52,1.78.46a46.51,46.51,0,0,0,6.74-1.36l-5.55,1.69c-.85.26-4.12,1.45-3.58,2.75a.88.88,0,0,0,.93.5,28.55,28.55,0,0,0,7.92-2.5l-5.84,2.44c-.51.21-1.46.71-1.38,1.46.1.91,1.29.82,1.84.7a40.78,40.78,0,0,0,6.83-2.17c-1.46,1.17-6.95,3.18-5.34,3.89a2.19,2.19,0,0,0,1.41,0c2.79-.6,4.47-.9,7.26-1.5a26.64,26.64,0,0,0,4-1.29c3.65-1.58,11.9-4.23,8.38-9.74A7,7,0,0,0,805,287Z" transform="translate(-400 -102)"/><path class="cls-12" d="M846.42,214l-2.7,1.44a15.48,15.48,0,0,0-7.11,8.24l-4.8,43.72-27.5,18.54,4.09,7.71,32-13.47c3.54-.39,4-21.79,4-21.79Z" transform="translate(-400 -102)"/><path class="cls-16" d="M780.74,274.89c-.24-1.15-8.1-30.32-8.1-30.32s-2.15.31-1.78,3.12,9.79,56.23,9.79,56.23c.39,1.39,1.5,1.74,1.87,1.65,1.78-.4,2-2,5.14-6.81,3.66-5.52,3.61-4.83,3.78-5.72C791.19,286.88,783,286.05,780.74,274.89Z" transform="translate(-400 -102)"/><path class="cls-16" d="M784,304s.84,3.4,3.44,3.91l48.68-7s3-1.62,3.42-4.63C821.5,295.78,784,304,784,304Z" transform="translate(-400 -102)"/><path class="cls-17" d="M791,292.56l-7.07,10.29c-.59.8-1.84,1.43-2.13-.22l-9.5-55.39c-.29-1.69.14-2.77.93-2.44l10.36,4.32c.43.18.93,1.29,1.13,2.47l6.65,39.23C791.55,292,791.31,292.12,791,292.56Z" transform="translate(-400 -102)"/><polygon class="cls-16" points="390.69 188.43 382.49 198.13 373.74 147.03 384.23 150.38 390.69 188.43"/><polygon class="cls-18" points="377.57 146.71 376.28 146.25 376.11 145.25 377.4 145.74 377.57 146.71"/><polygon class="cls-18" points="382.33 148.83 381.36 148.49 381.21 147.62 382.19 147.99 382.33 148.83"/><polygon class="cls-18" points="388.41 194.31 386.75 196.47 386.46 194.76 388.13 192.7 388.41 194.31"/><polygon class="cls-19" points="390.25 188 382.57 197.2 374.25 147.67 383.97 150.62 390.25 188"/><path class="cls-20" d="M794.7,292.23c-1.74.23-3.21.55-3.44.91l-6.89,10.67c-.42.64,1.2.88,3.61.53l.64-.1,6.69-12.15Z" transform="translate(-400 -102)"/><path class="cls-17" d="M830.05,287.34l-35.13,4.82-6.66,12.24,48.12-7.06c2.2-.33,3.67-1,3.3-1.5l-6.3-8.39C833.16,287.17,831.67,287.12,830.05,287.34Z" transform="translate(-400 -102)"/><polygon class="cls-21" points="433.12 190.76 423.35 192.15 422.77 190.3 432.02 189 433.12 190.76"/><polygon class="cls-11" points="427.57 189.66 428.38 191.39 431.81 190.91 430.82 189.2 427.57 189.66"/><polygon class="cls-21" points="423.06 187.82 424.83 187.57 424.5 186.76 422.77 187 423.06 187.82"/><polygon class="cls-21" points="426.34 186.51 426.73 187.31 428.5 187.06 428.06 186.27 426.34 186.51"/><polygon class="cls-21" points="424.69 194.41 424.85 194.91 430.34 194.12 430.1 193.63 424.69 194.41"/><polygon class="cls-21" points="430.6 194.66 425.04 195.47 425.21 196 430.86 195.18 430.6 194.66"/><polygon class="cls-18" points="395.49 200.65 390.51 201.38 396.01 190.5 399.74 189.99 395.49 200.65"/><polygon class="cls-11" points="391.74 200.17 391.38 200.92 394.95 200.4 395.26 199.66 391.74 200.17"/><polygon class="cls-21" points="397.15 199.66 396.79 200.63 400.55 200.08 400.82 199.13 397.15 199.66"/><polygon class="cls-21" points="397.62 198.38 397.29 199.28 400.93 198.75 401.18 197.86 397.62 198.38"/><polygon class="cls-21" points="398.07 197.17 397.75 198.02 401.28 197.51 401.52 196.67 398.07 197.17"/><polygon class="cls-21" points="398.49 196.03 398.19 196.83 401.62 196.34 401.84 195.55 398.49 196.03"/><polygon class="cls-21" points="398.88 194.95 398.6 195.71 401.93 195.23 402.14 194.49 398.88 194.95"/><polygon class="cls-21" points="399.26 193.93 398.99 194.65 402.22 194.19 402.42 193.49 399.26 193.93"/><polygon class="cls-21" points="399.61 192.97 399.36 193.65 402.5 193.2 402.69 192.54 399.61 192.97"/><polygon class="cls-21" points="399.95 192.05 399.71 192.7 402.77 192.27 402.95 191.64 399.95 192.05"/><polygon class="cls-21" points="400.27 191.19 400.04 191.8 403.02 191.38 403.19 190.78 400.27 191.19"/><polygon class="cls-21" points="400.57 190.36 400.36 190.94 403.26 190.54 403.42 189.97 400.57 190.36"/><polygon class="cls-21" points="400.86 189.58 400.66 190.13 403.49 189.74 403.64 189.19 400.86 189.58"/><polygon class="cls-21" points="401.93 199.8 406.66 199.1 406.81 198.08 402.2 198.75 401.93 199.8"/><polygon class="cls-21" points="402.26 198.5 406.84 197.83 406.98 196.86 402.51 197.51 402.26 198.5"/><polygon class="cls-21" points="402.57 197.27 407.01 196.63 407.14 195.72 402.81 196.34 402.57 197.27"/><polygon class="cls-21" points="402.86 196.12 407.17 195.5 407.3 194.64 403.08 195.24 402.86 196.12"/><polygon class="cls-21" points="403.14 195.03 407.32 194.44 407.44 193.63 403.35 194.2 403.14 195.03"/><polygon class="cls-21" points="403.4 194 407.47 193.43 407.58 192.66 403.6 193.22 403.4 194"/><polygon class="cls-21" points="403.64 193.03 407.61 192.48 407.71 191.75 403.83 192.29 403.64 193.03"/><polygon class="cls-21" points="403.88 192.11 407.74 191.57 407.83 190.88 404.06 191.41 403.88 192.11"/><polygon class="cls-21" points="404.1 191.24 407.86 190.71 407.95 190.06 404.27 190.57 404.1 191.24"/><polygon class="cls-21" points="404.31 190.41 407.98 189.9 408.06 189.27 404.47 189.77 404.31 190.41"/><polygon class="cls-21" points="404.66 189.01 404.51 189.62 410.75 188.75 410.79 188.17 404.66 189.01"/><polygon class="cls-21" points="407.5 198.98 412.18 198.3 412.19 197.3 407.63 197.96 407.5 198.98"/><polygon class="cls-21" points="407.66 197.71 412.19 197.05 412.2 196.11 407.77 196.75 407.66 197.71"/><polygon class="cls-21" points="407.81 196.52 412.21 195.88 412.21 195 407.92 195.61 407.81 196.52"/><polygon class="cls-21" points="407.94 195.39 412.21 194.78 412.23 193.94 408.05 194.54 407.94 195.39"/><polygon class="cls-21" points="408.07 194.33 412.23 193.74 412.23 192.95 408.17 193.52 408.07 194.33"/><polygon class="cls-21" points="408.2 193.33 412.24 192.75 412.24 192.01 408.29 192.56 408.2 193.33"/><polygon class="cls-21" points="408.31 192.38 412.24 191.82 412.25 191.11 408.4 191.65 408.31 192.38"/><polygon class="cls-21" points="408.42 191.48 412.25 190.94 412.26 190.26 408.51 190.79 408.42 191.48"/><polygon class="cls-21" points="408.53 190.62 412.26 190.1 412.27 189.46 408.61 189.97 408.53 190.62"/><polygon class="cls-21" points="408.63 189.81 412.27 189.3 412.27 188.69 408.7 189.19 408.63 189.81"/><polygon class="cls-21" points="408.8 188.44 408.72 189.03 412.27 188.54 412.28 187.96 408.8 188.44"/><polygon class="cls-21" points="413.35 198.13 417.98 197.45 417.85 196.47 413.33 197.13 413.35 198.13"/><polygon class="cls-21" points="413.32 196.89 417.81 196.24 417.69 195.32 413.31 195.95 413.32 196.89"/><polygon class="cls-21" points="413.3 195.72 417.66 195.1 417.54 194.23 413.28 194.84 413.3 195.72"/><polygon class="cls-21" points="413.28 194.63 417.51 194.02 417.4 193.2 413.26 193.79 413.28 194.63"/><polygon class="cls-21" points="413.26 193.59 417.38 193.01 417.27 192.24 413.25 192.81 413.26 193.59"/><polygon class="cls-21" points="413.24 192.61 417.25 192.05 417.15 191.31 413.23 191.87 413.24 192.61"/><polygon class="cls-21" points="413.22 191.69 417.12 191.14 417.02 190.44 413.21 190.98 413.22 191.69"/><polygon class="cls-21" points="413.21 190.81 417 190.28 416.92 189.62 413.19 190.13 413.21 190.81"/><polygon class="cls-21" points="413.19 189.97 416.89 189.46 416.81 188.83 413.18 189.33 413.19 189.97"/><polygon class="cls-21" points="413.17 189.18 416.79 188.68 416.7 188.08 413.17 188.57 413.17 189.18"/><polygon class="cls-21" points="413.15 187.84 413.16 188.42 420.31 187.44 420.17 186.88 413.15 187.84"/><polygon class="cls-21" points="419.13 197.28 423.72 196.61 423.45 195.66 418.97 196.31 419.13 197.28"/><polygon class="cls-21" points="418.93 196.07 423.38 195.43 423.12 194.53 418.78 195.16 418.93 196.07"/><polygon class="cls-21" points="418.75 194.94 423.06 194.32 422.82 193.47 418.6 194.08 418.75 194.94"/><polygon class="cls-21" points="418.57 193.87 422.76 193.27 422.53 192.47 418.43 193.06 418.57 193.87"/><polygon class="cls-21" points="418.4 192.86 422.48 192.28 422.26 191.53 418.27 192.09 418.4 192.86"/><polygon class="cls-21" points="418.24 191.91 422.21 191.34 422 190.63 418.12 191.18 418.24 191.91"/><polygon class="cls-21" points="418.36 192.63 422.42 192.06 421.53 188.97 417.84 189.49 418.36 192.63"/><polygon class="cls-21" points="417.81 189.33 421.49 188.82 421.31 188.21 417.71 188.71 417.81 189.33"/><polygon class="cls-21" points="417.68 188.56 421.27 188.06 421.1 187.48 417.59 187.96 417.68 188.56"/><polygon class="cls-21" points="417.47 187.25 417.56 187.82 421.06 187.33 420.9 186.78 417.47 187.25"/><path class="cls-16" d="M778.18,269.42a.54.54,0,0,0-.61-.48.35.35,0,0,0-.13.05l1,6.68a.6.6,0,0,0,.23,0,.58.58,0,0,0,.41-.68Z" transform="translate(-400 -102)"/><path class="cls-16" d="M787.36,267.7a.42.42,0,0,0-.51-.29l-.11,0,.68,4.39a.6.6,0,0,0,.19,0,.43.43,0,0,0,.38-.47Z" transform="translate(-400 -102)"/><polygon class="cls-21" points="384.1 200.63 384.83 201.19 385.64 199.89 384.93 199.4 384.1 200.63"/><polygon class="cls-21" points="390.27 191.6 390.71 191.96 391.33 191.09 390.83 190.7 390.27 191.6"/><path class="cls-22" d="M862.52,183.16c-2.76,3-5.14,5.42-7.19,7.43-7.59,7.46-10.57,9-10.57,9-.14.45,3.63,6.72,1.35,15.83A58.3,58.3,0,0,0,862.52,183.16Z" transform="translate(-400 -102)"/><path class="cls-5" d="M836.31,194c-.71.18-.88,1.21-.62,1.94s.8,1.31,1,2.06a17.74,17.74,0,0,1,.12,2.43,4.17,4.17,0,0,0,3.48,3.32,10.09,10.09,0,0,0,4.92-.73c6-2.09,12-5.44,15.61-11,3.26-5,4.28-11.25,5-17.28.42-3.72.74-7.53-.15-11.15a15.44,15.44,0,0,0-1.11-3.05c-4.32-8.93-14-10-22-6.88-7.79,3-12.52,12.42-10.74,20.86.21,1,.68,1.92.83,2.93.32,2.17-.86,4.16-1.76,6-.59,1.22-2.38,4.65-.62,5.58.93.48,1.93,0,2.79.85a4.69,4.69,0,0,1,1.14,3,1.24,1.24,0,0,0,.08.51C834.37,193.79,835.94,194,836.31,194Z" transform="translate(-400 -102)"/><path class="cls-3" d="M872.21,212c-1-1.06-2-2.13-2.87-3.28a26.77,26.77,0,0,1-4.43-8A49.21,49.21,0,0,1,862.63,183l-.11.12a58.3,58.3,0,0,1-16.41,32.24c-.1.38-.21.77-.32,1.17-2.24,4.13-5.64,8.45-4.46,13.5a13.7,13.7,0,0,0,4.46,7c2.56,2.23,6,3.66,9.22,2.78,3.65-1,6.08-4.7,7.37-8.44,1.61-4.63,1.82-11.84,5.56-15.29a4.22,4.22,0,0,1,2.36-1.06c.88-.15,2.86.22,3.56-.26C875.05,214,873,212.82,872.21,212Z" transform="translate(-400 -102)"/><path class="cls-12" d="M890.41,294a16.85,16.85,0,0,1-.92-4.82c.92-26-3.6-56.66-3.6-56.66l-2.17-4.12c-.61,0-1.22,0-1.83,0-4.06,0-9.14.32-10.88-4.54-.89-2.5,1.49-8-1.5-9-3.55-1.21-8.74,5.63-11.38,7.65-3.54,2.7-7.59,4.49-12,3.94-1.76-.21-2.93-2.1-3.2-3.85-.3-2,.68-3.65,1.48-5.35a57.11,57.11,0,0,0-4.1,10.45c-1,3.75-1.61,7.58-2.77,11.27-1.05,3.38-2.11,6.76-3.1,10.17-.45,1.56-1.32,3.49-1.32,5.16,0,1.91,12.25,33.85,15.66,42.68q.36.93.57,1.5c.19.48.29.75.36.75,1.06-.08,14.52-1,40.81-3.83h.19C890.63,294.94,890.52,294.5,890.41,294Z" transform="translate(-400 -102)"/><path class="cls-23" d="M848.82,297q.36.93.57,1.5l41-4.41c-.34-1.41-.65-3-.92-4.82C881.9,290.4,856.73,295.77,848.82,297Z" transform="translate(-400 -102)"/><path class="cls-24" d="M849.73,178.89c.28.5.54,1,.8,1.52,2.23,4.51,3.91,9.66,3.27,14.81.64-.81,1.27-1.64,1.91-2.45a12.7,12.7,0,0,1-.09,10.4c.31-.68,3.82-1.43,4.58-1.8,1.31-.63,2.67-1.34,3.93-2.11a25.3,25.3,0,0,0,7.12-6.53c7-9.48,8.06-24.31,1.24-34.08-3.41-4.88-9.44-9.55-15.35-10.14a23.93,23.93,0,0,0-14.32,3.13c-3.75,2.17-7.1,3.88-9.24,7.9a28.48,28.48,0,0,0-3.29,13.69c1.91.26,3.81.54,5.7.9l5,1c.28,0,.81-5.8.86-6.2,1,1.12,2,2.3,3.07,3.37A29,29,0,0,1,849.73,178.89Z" transform="translate(-400 -102)"/><path class="cls-3" d="M835.54,286.92l-10.12.85-8.62.94a4.19,4.19,0,0,0-2.26,1c-2.41,2-5.06,3.56-7.23,5.92-1.43,1.58-2,2.49.47,3.17a3.84,3.84,0,0,0,4.22-1.49c-.4.52-.94,1.21-.75,1.94.4,1.44,1.71.59,2.48.19l4.93-2.56a4.71,4.71,0,0,1,3.23-.42l7.8,1.77a5.35,5.35,0,0,0,2.86-.15l6.21-2.11Z" transform="translate(-400 -102)"/><path class="cls-12" d="M831.65,285.87c11.59-3.84,27.66-9,32.79-12.1,3.12-1.9-3.5-43.32-2.38-49.08.84-4.35,5.32-12.47,9.94-11.78,8.43,1.25,18.66,17.73,14.81,33.58,0,.14-.07,38.43-2.08,40.71s-31.36,8.72-48.68,13A108.34,108.34,0,0,1,831.65,285.87Z" transform="translate(-400 -102)"/></g><path class="cls-25" d="M757.32,159.7c-39.43-1.17-77-12-112.81-23.82s-71.37-25-109.85-31.24c-24.78-4-53.09-4.6-73,6.69-19.19,10.85-25.4,29.6-28.73,47-2.51,13.09-4,26.86,2.89,39.11,4.77,8.5,13.24,15.65,19.11,23.8,20.4,28.34,6,63.3-16.12,91-10.37,13-22.39,25.37-30.38,39.19s-11.7,29.66-4.7,43.76,23.46,24.47,41.36,31.85c36.37,15,79.21,19.29,121,21.72,92.49,5.38,185.48,3,278.21.72,34.32-.87,68.79-1.74,102.55-6.25,18.75-2.51,38.11-6.49,51.72-16.09,17.28-12.19,21.56-32.83,10-48.11-19.42-25.64-73.13-32-86.69-59.52-7.47-15.14.2-32,11.06-46.06,23.29-30.13,62.34-56.56,64.4-91,1.41-23.65-17.36-47.33-46.38-58.55-30.43-11.73-72.6-10.25-95,9.16C832.74,153,792.13,160.73,757.32,159.7Z" transform="translate(-400 -102)"/></svg>