<svg id="Layer_1" data-name="Layer 1" xmlns="http://www.w3.org/2000/svg" xmlns:xlink="http://www.w3.org/1999/xlink" viewBox="0 0 979.95 733"><defs><style>.cls-1,.cls-8{fill:#d311af;}.cls-1,.cls-4,.cls-7{opacity:0.1;}.cls-1,.cls-11,.cls-14,.cls-7{isolation:isolate;}.cls-2{fill:url(#linear-gradient);}.cls-3{fill:#3f3d56;}.cls-5{fill:#fbbebe;}.cls-6{fill:#575a89;}.cls-9{fill:#444053;}.cls-10{fill:#f6f8fb;}.cls-11{opacity:0.05;}.cls-12{fill:#ffd037;}.cls-13{fill:#a8a8a8;}.cls-14{opacity:0.2;}.cls-15{font-size:110.2px;fill:#fff;font-family:Nunito-Bold, Nunito;font-weight:700;}.cls-16{letter-spacing:-0.01em;}.cls-17{letter-spacing:-0.01em;}</style><linearGradient id="linear-gradient" x1="999.58" y1="-11.21" x2="999.58" y2="383.62" gradientTransform="matrix(1, 0, 0, -1, -49.99, 725.71)" gradientUnits="userSpaceOnUse"><stop offset="0" stop-color="gray" stop-opacity="0.25"/><stop offset="0.54" stop-color="gray" stop-opacity="0.12"/><stop offset="1" stop-color="gray" stop-opacity="0.1"/></linearGradient></defs><title>feel</title><path class="cls-1" d="M190.22,442.05c15,53.65,46.68,100,96.76,122.51,104.11,46.72,338.92,22.62,514.17-5,90.65-14.3,170.33-53.78,228.21-109.34Z" transform="translate(-149.05 -13)"/><path class="cls-1" d="M1109.2,189.52h-96.15c-4.57,0-8.31-3.13-8.31-7s3.74-7,8.31-7h16.63c-4.57,0-8.31-3.13-8.31-7s3.74-7,8.31-7h-11.87c-4.57,0-8.32-3.13-8.32-7s3.75-7,8.32-7H1068c-11.14-4.34-24.16-7.42-39.16-9-136.85-14.73-185.71-5-202.94,5a211.82,211.82,0,0,1-70.34,25.85c-84.43,14.6-242.33,32.17-385.44-5.6-71.13-18.8-124,12.93-155.69,66H1125.9c-1.19-15.41-4.75-29.65-11.29-42.11A9.21,9.21,0,0,1,1109.2,189.52Z" transform="translate(-149.05 -13)"/><path class="cls-1" d="M182.07,330.07a298.33,298.33,0,0,0,3.73,93.6L1030,449.56a333.91,333.91,0,0,0,58.65-75ZM516,396.84H499.34c4.57,0,8.32,3.14,8.32,7s-3.75,7-8.32,7H403.19c-4.56,0-8.31-3.13-8.31-7s3.75-7,8.31-7h16.63c-4.57,0-8.31-3.13-8.31-7s3.74-7,8.31-7H407.94c-4.57,0-8.31-3.13-8.31-7s3.74-7,8.31-7H504.1c4.57,0,8.3,3.14,8.3,7s-3.73,7-8.3,7H516c4.57,0,8.3,3.14,8.3,7S520.54,396.84,516,396.84Z" transform="translate(-149.05 -13)"/><path class="cls-1" d="M1125.94,230.42,204.26,249.2c-11.21,24.16-18.65,51.48-22.07,79.79h927.6a285.47,285.47,0,0,0,13.39-50.86C1126,261.5,1127.05,245.42,1125.94,230.42ZM369.32,292H352.7c4.57,0,8.32,3.14,8.32,7s-3.75,7-8.32,7H256.55c-4.57,0-8.31-3.14-8.31-7s3.74-7,8.31-7h16.63c-4.57,0-8.31-3.13-8.31-7s3.74-7,8.31-7H261.3c-4.57,0-8.32-3.13-8.32-7s3.75-7,8.32-7h96.15c4.58,0,8.31,3.13,8.31,7s-3.73,7-8.31,7h11.87c4.57,0,8.31,3.14,8.31,7S373.89,292,369.32,292Z" transform="translate(-149.05 -13)"/><ellipse class="cls-1" cx="479.73" cy="678.4" rx="402.9" ry="31.42"/><path class="cls-2" d="M1043.16,451.08v-.41h0a6.5,6.5,0,0,0-1.09-2.57,21.25,21.25,0,0,0-8-7c-5.7-2.89-13.52-4.13-15.8-9.65a28.68,28.68,0,0,1-1.06-5.37,16.7,16.7,0,0,0-11.55-12.17c-2.71-.84-5.63-1.07-8.26-2.11-5.88-2.31-9-8-11.62-13.31q-5.1-10.23-10.21-20.47a9.16,9.16,0,0,1-8.36-.87,16.31,16.31,0,0,1-5.41-6.19c-3.51-6.32-5-13.47-9.14-19.48S940.3,340.73,933,343.34a33.81,33.81,0,0,1-4.4,1.68c-6.23,1.36-13.13-5.25-18.47-2a5.84,5.84,0,0,0-2.1,2.12v-.16a9.79,9.79,0,0,0-1.14,4.18h0v1c0,1.15.08,2.32.1,3.49a14.28,14.28,0,0,1-.24,2.92v-.08a8.84,8.84,0,0,1-.45,1.6c-1.39,3.45-5.24,5.72-7,9v-.16a9.13,9.13,0,0,0-.53,1.09,7.81,7.81,0,0,0-.49,2.65c-.15,6.1,6.82,11.84,7.64,18.38.57,4.64,1.72,6.12,6,8.74l.93.58c-.37,0-.75,0-1.17.06a2.7,2.7,0,0,0-.49,0,5.64,5.64,0,0,0-4.43.72c-3.26,2.4-11,.55-14.4,0s-15.16.94-16.8,7-4.45,18.46-4.45,18.46,0,7.89-1,9.36a.44.44,0,0,0,0,.32c0,2.22.09,15.52-2.23,19-.56.8-.52,2.57-.1,4.74-2.43,2.9-4.72,6.29-4.31,8.51.74,4.55,10.69,18.85,25,11.19,0,0,8.12-13.75-2.09-21.07l.44-1.6c3.08,3.52,5.37,6.05,5.37,6.05s.12.29.31.8h-.31a35.37,35.37,0,0,1,2.4,10.45,12,12,0,0,1-.76,3.84H894c-.08.27-.17.55-.27.8a7.06,7.06,0,0,1-2.68,3.37c-7.14,4.68-15.31,38.13-15.31,38.13s-16.18,54.06-19.41,57.14c-2.68,2.52,14.13,9.63,26.74,8.79a22.51,22.51,0,0,0,5.17-.91c.08.8.17,1.59.25,2.32.27,2.4.55,4.62.72,5.32.45,1.74,1.34,19.53,1.34,19.53s-1.82,11.55-1.38,19.59c0,.55.07,1.08.12,1.6l-1.57.23c-2.38,4.95,7.43,46.29,8.77,49.77a31.1,31.1,0,0,1,1.48,8.43s-.86,2.94-.14,4.55a10.65,10.65,0,0,1,.86,3.07,7.85,7.85,0,0,0,.3,4.41c.89,1.75-.15,4.8-.15,4.8s-.29,12-3,18.6a10.06,10.06,0,0,0,1.85,10.61c.19.23.39.44.6.65,0,0,14.76.11,17.35,0H916c1-.14,3.72-11,1.33-16.19S917,709,917,709v-9.49s2.68-2.29,0-7.19-2.23-6.4-2.23-6.4,3-7.89-.15-10.44.6-12.17.6-12.17l1-32.13a13.68,13.68,0,0,0-1.68-.4c-.06-.53-.12-1.07-.18-1.65-.62-5.82-1.14-13.73.22-16s2-21.93,2.23-35.6l13.6.48c.28,6.39.58,12.22.77,13,.45,1.74,1.35,19.53,1.35,19.53s-1.83,11.55-1.39,19.59c0,.55.08,1.08.13,1.6l-1.57.23c-2.38,4.95,7.43,46.29,8.76,49.77a31.12,31.12,0,0,1,1.5,8.43s-.87,2.94-.16,4.55a10,10,0,0,1,.86,3.07,7.89,7.89,0,0,0,.31,4.41c.88,1.75-.15,4.8-.15,4.8s-.29,12-3,18.6a10.07,10.07,0,0,0,1.92,10.59,5.25,5.25,0,0,0,.6.65s14.75.11,17.35,0h.33c1-.13,3.72-11,1.34-16.19s-.29-11.64-.29-11.64v-9.48s2.67-2.29,0-7.19-2.24-6.4-2.24-6.4,3-7.89-.14-10.44.59-12.17.59-12.17l1.07-32.13a14.31,14.31,0,0,0-1.72-.4c-.06-.53-.12-1.07-.18-1.65-.62-5.82-1.14-13.73.22-16,1.1-1.85,1.73-13.74,2-25.35,0-.8,0-1.6.07-2.4a144.73,144.73,0,0,0,18.61-1.93s-7.27-23.83-5-27.7c1-1.67-.42-10.57-2.31-20.15a15.87,15.87,0,0,0,9.3,3.12c3.25,5.79,13.14,19.12,18.71,21.18,6.54,2.39,1.63-18.86-1.48-21.94a26,26,0,0,1-3.69-5.49,3.44,3.44,0,0,1,.27-.27c.08-.08.15-22.61-1.34-22.2s-3.27-3.35-3.27-3.35L984,469.24l-1.93-15.68h0c1.61,1.1,3.53,1.81,5.18,2.9,4.48,3.05,6,8.39,7.91,13.12,1.63,3.9,3.9,7.76,7.64,10.2s9.21,3.09,12.94.62c3.45-2.33,4.47-6.52,5.23-10.35,6.26,2,13.86-3.42,13-9.37-.2-1.47-.79-3.08,0-4.36,1.66-2.54,6.9-1.07,8.63-3.57a2.54,2.54,0,0,0,.43-1.45A1.22,1.22,0,0,0,1043.16,451.08Zm-83.77,20.61c-.09,1.43,2,12.92,3.76,22-1.42-5.66-4.26-11.71-9.85-15.86a7.62,7.62,0,0,0-.06-.8h.06s-.23-2.29-.26-5.54a56.48,56.48,0,0,1,.69-8.61v-.08h-.12a3.61,3.61,0,0,1,.12-.72,24.7,24.7,0,0,1,2.09-7,20.08,20.08,0,0,1,1.6-2.51c.92,7.73,2.06,17.65,2,19.1ZM964,498.31c.76,3.93,1.31,6.69,1.31,6.69l4.58,29.13v.14C967.45,522,964.3,509,964.3,509A46.71,46.71,0,0,0,964,498.31Z" transform="translate(-149.05 -13)"/><path class="cls-3" d="M907.9,390.57c-.87-7.38-9.49-13.75-6.9-20.78,1.4-3.83,5.8-6.17,7.28-10,1-2.51.55-5.27.56-7.94s.68-5.65,3.08-7.13c5.17-3.19,11.83,3.38,17.87,2a31.82,31.82,0,0,0,4.25-1.68c7.05-2.59,15,2.14,19,8.11s5.44,13.11,8.84,19.39a16.07,16.07,0,0,0,5.23,6.16,8.63,8.63,0,0,0,8.09.87L985.06,400c2.58,5.25,5.55,10.94,11.21,13.25,2.54,1,5.37,1.27,8,2.11a16.38,16.38,0,0,1,11.21,12.1,28.26,28.26,0,0,0,1,5.35c2.2,5.5,9.76,6.73,15.27,9.59a20.74,20.74,0,0,1,7.77,7c.86,1.38,1.6,3.2.68,4.56-1.67,2.49-6.73,1-8.33,3.55-.81,1.28-.24,2.88,0,4.35.78,5.92-6.58,11.35-12.63,9.32-.73,3.81-1.73,8-5.06,10.3-3.58,2.48-8.88,1.82-12.5-.61s-5.8-6.27-7.37-10.15c-1.91-4.71-3.33-10-7.67-13.06-1.57-1.09-3.45-1.79-5-2.89-3.46-2.44-5.18-6.48-6.41-10.39-1.6-4.87-2.87-9.88-5.18-14.49s-6-8.88-11-11c-4.7-1.95-10.12-1.83-15-3.42-8.35-2.73-14.54-9.24-22.85-12.31a38.58,38.58,0,0,1-7.51-3.93C909.59,396.67,908.45,395.19,907.9,390.57Z" transform="translate(-149.05 -13)"/><g class="cls-4"><path d="M908.67,358.25a6.68,6.68,0,0,0,.47-1c1-2.51.54-5.26.55-7.93a13.27,13.27,0,0,1,.27-2.66,10.5,10.5,0,0,0-1.13,5.06A33.54,33.54,0,0,1,908.67,358.25Z" transform="translate(-149.05 -13)"/><path d="M1015,479c-3.58,2.47-8.88,1.82-12.49-.62s-5.82-6.26-7.35-10.15c-1.9-4.72-3.32-10-7.66-13.07-1.57-1.09-3.45-1.8-5-2.88-3.45-2.45-5.18-6.49-6.42-10.35-1.59-4.88-2.85-9.89-5.17-14.49s-6-8.89-11-11c-4.69-2-10.1-1.83-15-3.42-8.37-2.73-14.55-9.25-22.86-12.32a38,38,0,0,1-7.51-3.93c-4.09-2.61-5.18-4.09-5.78-8.7-.87-6.92-8.46-13-7.27-19.48a8.25,8.25,0,0,0-.51,1.09c-2.59,7,6,13.4,6.9,20.78.56,4.61,1.72,6.09,5.78,8.7a38.58,38.58,0,0,0,7.51,3.93c8.31,3.07,14.49,9.59,22.86,12.32,4.86,1.6,10.27,1.46,15,3.42,5,2.1,8.63,6.39,11,11s3.61,9.59,5.17,14.49c1.27,3.86,2.93,7.9,6.42,10.35,1.56,1.08,3.45,1.79,5,2.88,4.31,3,5.76,8.35,7.66,13.07,1.57,3.87,3.77,7.71,7.39,10.14s8.92,3.08,12.5.61c2.28-1.59,3.45-4,4.22-6.65A10,10,0,0,1,1015,479Z" transform="translate(-149.05 -13)"/><path d="M1032.74,455a3.18,3.18,0,0,0-.41,1.87c2-1.78,6.35-.73,7.88-3a2.69,2.69,0,0,0,.4-1.87C1038.61,453.7,1034.21,452.66,1032.74,455Z" transform="translate(-149.05 -13)"/><path d="M1020.07,468.65c-.16.8-.33,1.65-.54,2.48,5.28,1.53,11.38-2.39,12.24-7.35C1029.68,467.59,1024.5,470.14,1020.07,468.65Z" transform="translate(-149.05 -13)"/></g><path class="cls-5" d="M919,394.41s2.87,5.37-5.61,5.49,5.46,34.87,5.46,34.87L933,451.39l17.54-8.79,1-24.24,1.29-14.65s-16.39-4.93-13.37-11.45S919,394.41,919,394.41Z" transform="translate(-149.05 -13)"/><path class="cls-6" d="M969.94,536.15s10.35,9.44,22.43-3.08L983.1,524H971.37Z" transform="translate(-149.05 -13)"/><path class="cls-7" d="M971.06,524l-1.42,12.2s10.35,9.44,22.43-3.08" transform="translate(-149.05 -13)"/><path class="cls-5" d="M988.48,525.61s4.17,10.13,7.19,13.19,7.76,24.24,1.44,21.84-18.4-20.24-19.13-23.3-1-11.73-1-11.73Z" transform="translate(-149.05 -13)"/><polygon class="cls-6" points="749.01 564.56 804.78 566.56 798.31 544.71 770.22 544.18 749.01 564.56"/><polygon class="cls-7" points="756.76 564.56 812.54 566.56 806.08 544.71 777.97 544.18 756.76 564.56"/><path class="cls-5" d="M916.31,613.63c-1.32,2.27-.81,10.15-.22,16,.38,3.71.79,6.56.79,6.56s-20.84,6-24,.8c-.8-1.32-1.2-3.63-1.34-6.34-.43-8,1.34-19.5,1.34-19.5s-.86-17.71-1.3-19.45c-.17-.69-.44-2.9-.69-5.29-.38-3.55-.75-7.5-.75-7.5l28.47-14s0,2.62-.05,6.66C918.4,584.24,918,610.83,916.31,613.63Z" transform="translate(-149.05 -13)"/><path class="cls-7" d="M916.88,636.17s-20.84,6-24,.8c-.8-1.32-1.2-3.63-1.34-6.34,4.31-.6,17.44-2.28,24.55-1C916.47,633.32,916.88,636.17,916.88,636.17Z" transform="translate(-149.05 -13)"/><path class="cls-3" d="M917.6,736.87h-.33c-2.51.08-16.77,0-16.77,0-.21-.21-.41-.42-.59-.64a10.26,10.26,0,0,1-1.86-10.55c2.59-6.53,2.88-18.52,2.88-18.52s1-3.06.14-4.79a8.07,8.07,0,0,1-.29-4.4,10.67,10.67,0,0,0-.86-3.06c-.72-1.6.14-4.53.14-4.53a31.21,31.21,0,0,0-1.44-8.39c-1.29-3.46-10.78-44.62-8.48-49.55,0,0,20.13-3.2,27.75-.8l-1,32s-3.59,9.59-.57,12.12.14,10.39.14,10.39-.43,1.46,2.16,6.39,0,7.2,0,7.2v9.45s-2,6.39.28,11.59S918.61,736.7,917.6,736.87Z" transform="translate(-149.05 -13)"/><path class="cls-5" d="M957.1,613.63c-1.32,2.27-.81,10.15-.22,16,.38,3.71.8,6.56.8,6.56s-20.85,6-24,.8c-.8-1.32-1.2-3.63-1.34-6.34-.43-8,1.34-19.5,1.34-19.5s-.86-17.71-1.29-19.45c-.24-.93-.64-9.85-1-17.85-.27-6.83-.48-13-.48-13l28.46,4.08s0,11.59-.35,23.51C958.74,600,958.16,611.82,957.1,613.63Z" transform="translate(-149.05 -13)"/><path class="cls-7" d="M957.68,636.17s-20.85,6-24,.8c-.8-1.32-1.2-3.63-1.34-6.34,4.32-.6,17.45-2.28,24.55-1C957.26,633.32,957.68,636.17,957.68,636.17Z" transform="translate(-149.05 -13)"/><path class="cls-3" d="M958.39,736.87h-.32c-2.51.08-16.78,0-16.78,0-.21-.21-.41-.42-.59-.64a10.26,10.26,0,0,1-1.85-10.55c2.58-6.56,2.84-18.55,2.84-18.55s1-3.06.15-4.8a8,8,0,0,1-.29-4.39,11,11,0,0,0-.87-3.06c-.71-1.6.15-4.53.15-4.53a31.61,31.61,0,0,0-1.44-8.39c-1.29-3.46-10.78-44.62-8.48-49.55,0,0,20.13-3.2,27.75-.8l-1,32s-3.6,9.59-.58,12.13.15,10.39.15,10.39-.43,1.46,2.16,6.39,0,7.19,0,7.19v9.46s-2,6.39.28,11.59S959.4,736.7,958.39,736.87Z" transform="translate(-149.05 -13)"/><ellipse class="cls-7" cx="781.21" cy="368.91" rx="20.27" ry="18.78"/><ellipse class="cls-5" cx="781.21" cy="368.12" rx="20.27" ry="18.78"/><path class="cls-7" d="M890.14,578.89l28.47-14s0,2.62-.05,6.66c-4.16,2.3-10.43,5.76-16.46,9-3.28,1.78-6.48,3.51-9.22,4.95a13.13,13.13,0,0,1-2,.8C890.51,582.84,890.14,578.89,890.14,578.89Z" transform="translate(-149.05 -13)"/><path class="cls-7" d="M959.4,564.88s0,11.59-.35,23.51H959a50.31,50.31,0,0,1-6.38-.19c-3.72-.36-6.69-1.27-7.76-3.08-2.17-3.52-8.23-8-13.36-11.32-.26-6.83-.48-13-.48-13Z" transform="translate(-149.05 -13)"/><path class="cls-6" d="M954.11,463.31a70.38,70.38,0,0,0-.42,15.69c13.08,10,10.64,31,10.64,31s10.06,42.63,7.91,46.49,4.88,27.57,4.88,27.57A134.89,134.89,0,0,1,959,586a52.24,52.24,0,0,1-6.38-.18c-3.72-.37-6.69-1.28-7.76-3.09-4-6.52-21.42-16.24-21.42-16.24s-11,6.12-21.29,11.69c-3.28,1.78-6.48,3.51-9.22,4.95a18.08,18.08,0,0,1-7.2,1.83c-12.21.84-28.47-6.24-25.88-8.75,3.16-3.07,18.84-56.87,18.84-56.87s7.9-33.31,14.8-38a7,7,0,0,0,2.59-3.35c2.36-6.08-1.59-15.83-1.59-15.83s-22.28-25.44-21.28-26.91,1-9.32,1-9.32,2.73-12.39,4.31-18.38,12.94-7.47,16.24-6.93,10.78,2.4,13.94,0,8.48.93,8.48.93l13.1,3.34L942,398.56s11.8.56,12.81,2,16.54,4.27,16.54,4.27c7.9,4.92,7.62,28.37,7.62,28.37s-19,15.31-22.86,23.18A24.45,24.45,0,0,0,954.11,463.31Z" transform="translate(-149.05 -13)"/><path class="cls-6" d="M974.68,430l4.31,3.19,4.46,37.16,4.45,37.3s1.73,3.73,3.17,3.33,1.29,22.11,1.29,22.11-16.51-9.41-22.43,3.08L965.33,506s-5.9-30.76-5.75-33.16-3-28.37-3-28.37Z" transform="translate(-149.05 -13)"/><path class="cls-6" d="M876.34,431.71l-3.16,3.6s.29,15.45-2.16,19.18,6.76,25.57,10.21,24.24,11.22-35.43,11.22-35.83S876.34,431.71,876.34,431.71Z" transform="translate(-149.05 -13)"/><path class="cls-6" d="M876.06,453.69s-10.07,9.45-9.35,14,10.35,18.77,24.15,11.12C890.86,478.79,903.66,456.49,876.06,453.69Z" transform="translate(-149.05 -13)"/><path class="cls-7" d="M907.87,705.15c-2.62.08-17.53,0-17.53,0a7,7,0,0,1-.61-.61C893.54,703.44,901.78,701.79,907.87,705.15Z" transform="translate(-149.05 -13)"/><path class="cls-7" d="M950.52,705.15c-2.63.08-17.54,0-17.54,0-.21-.19-.42-.4-.61-.61C936.17,703.44,944.4,701.79,950.52,705.15Z" transform="translate(-149.05 -13)"/><path class="cls-7" d="M903.12,502.63c-2.2,19.55-1.48,58.34-1,75.57-3.28,1.78-6.48,3.51-9.22,4.95a18.08,18.08,0,0,1-7.2,1.83C884.76,579.77,897.42,526.25,903.12,502.63Z" transform="translate(-149.05 -13)"/><path class="cls-7" d="M905.81,491.54c-.06.28-1.1,4.53-2.69,11.09C903.74,497,904.6,493,905.81,491.54Z" transform="translate(-149.05 -13)"/><path class="cls-7" d="M940.83,489.43s12.22,71.12-24,79.91C916.85,569.31,941.9,565.79,940.83,489.43Z" transform="translate(-149.05 -13)"/><path class="cls-7" d="M959,586a52.24,52.24,0,0,1-6.38-.18l-9.76-97.25C949,492.36,956.49,561.38,959,586Z" transform="translate(-149.05 -13)"/><path class="cls-7" d="M915.16,370.07a5.89,5.89,0,0,1,1.92.18,8.55,8.55,0,0,1,2.44,1.7,9.21,9.21,0,0,0,8.23,1.48,11.25,11.25,0,0,1,3.09-.8,5,5,0,0,1,3.93,2.4c.85,1.27,1.29,2.79,2,4.16a5.54,5.54,0,0,0,3.52,3,6.38,6.38,0,0,1,2.25.48,3,3,0,0,1,1,1.23c1.35,2.7,2.42,5.88,5.29,7.2a8.63,8.63,0,0,0,3.37.68,7.51,7.51,0,0,0,3.45-.58,6.45,6.45,0,0,0,2.54-2.34c1.79-2.75,2-6.15,1.58-9.34a24.56,24.56,0,0,0-4.51-11.24,26.12,26.12,0,0,0-23.16-9.9,34.32,34.32,0,0,0-4.62.8c-5.49,1.36-10.87,3.9-14.2,8.16a27.94,27.94,0,0,1-2.65,3C912.12,370.22,913.64,370.1,915.16,370.07Z" transform="translate(-149.05 -13)"/><path class="cls-3" d="M915.16,369.27a5.63,5.63,0,0,1,1.92.19,8.33,8.33,0,0,1,2.44,1.69,9.21,9.21,0,0,0,8.23,1.48,11.25,11.25,0,0,1,3.09-.8,5,5,0,0,1,3.93,2.4c.85,1.28,1.29,2.79,2,4.16a5.54,5.54,0,0,0,3.52,3,6.38,6.38,0,0,1,2.25.48,2.92,2.92,0,0,1,1,1.24c1.35,2.69,2.42,5.87,5.29,7.19a8.63,8.63,0,0,0,3.37.68,7.51,7.51,0,0,0,3.45-.58,6.45,6.45,0,0,0,2.54-2.34c1.79-2.75,2-6.15,1.58-9.34a24.64,24.64,0,0,0-4.51-11.24,26.14,26.14,0,0,0-23.16-9.9,34.32,34.32,0,0,0-4.62.8c-5.49,1.36-10.87,3.9-14.2,8.16a27.94,27.94,0,0,1-2.65,3C912.12,369.42,913.64,369.3,915.16,369.27Z" transform="translate(-149.05 -13)"/><path class="cls-7" d="M893.16,414s1,7.47-2.44,9.33S893.16,414,893.16,414Z" transform="translate(-149.05 -13)"/><path class="cls-7" d="M966.34,471.81s8.19-11.19,9.35-8S966.34,471.81,966.34,471.81Z" transform="translate(-149.05 -13)"/><path class="cls-7" d="M966.92,475.53s8.08-9.19,8.85-5.59S966.92,475.53,966.92,475.53Z" transform="translate(-149.05 -13)"/><path class="cls-7" d="M943.18,464.59a13.8,13.8,0,0,1-8.13-2.48h-.71a13.3,13.3,0,0,1-8.87,3.09,13.12,13.12,0,0,1-9.21-3.42h-.94a14.38,14.38,0,0,1-17.49-.29l-3.37-.06s3.95,9.75,1.58,15.83l57.65.95a70.31,70.31,0,0,1,.42-15.68v-.07l-3.17-.06A14,14,0,0,1,943.18,464.59Z" transform="translate(-149.05 -13)"/><path class="cls-7" d="M943.18,466.19a13.87,13.87,0,0,1-8.13-2.48h-.71a13.3,13.3,0,0,1-8.87,3.09,13.12,13.12,0,0,1-9.21-3.42h-.94a14.38,14.38,0,0,1-17.49-.29l-3.37-.06s3.95,9.75,1.58,15.83l57.65.95a70.29,70.29,0,0,1,.42-15.68v-.08l-3.17-.05A14,14,0,0,1,943.18,466.19Z" transform="translate(-149.05 -13)"/><path class="cls-3" d="M943.18,465.39a13.87,13.87,0,0,1-8.13-2.48h-.71a13.3,13.3,0,0,1-8.87,3.09,13.12,13.12,0,0,1-9.21-3.42h-.94a14.38,14.38,0,0,1-17.49-.29l-3.37-.06s3.95,9.75,1.58,15.83l57.65.95a70.31,70.31,0,0,1,.42-15.68v-.08l-3.17-.05A14,14,0,0,1,943.18,465.39Z" transform="translate(-149.05 -13)"/><path class="cls-7" d="M940.62,412.1s12.13.72,12.21,2.32S940.62,412.1,940.62,412.1Z" transform="translate(-149.05 -13)"/><path class="cls-7" d="M911.13,405.28S899,406,898.92,407.6,911.13,405.28,911.13,405.28Z" transform="translate(-149.05 -13)"/><path class="cls-7" d="M957.51,438l-.36-.22c3.11,2.59,2.59,8.25-1.22,12.92s-9.6,6.61-13.12,4.51c.11.09.2.19.32.28,3.45,2.44,9.49.52,13.48-4.3S961,440.41,957.51,438Z" transform="translate(-149.05 -13)"/><path class="cls-7" d="M890.84,450.06c-3.07-5.13-2.67-10.8.81-12.95l-.4.17c-3.81,2-4.31,7.86-1.16,13.16s8.85,8,12.67,6.06l.36-.22C899.31,457.88,893.91,455.19,890.84,450.06Z" transform="translate(-149.05 -13)"/><path class="cls-7" d="M895,406.79h0l-1.11,1.6L891,407l1.49-2.12A6.08,6.08,0,0,1,895,406.79Z" transform="translate(-149.05 -13)"/><path class="cls-5" d="M876.92,465.94s2.53-11-.86-14.51-2.31-21.85,2.87-21.45,12.94,14.91,11.65,18-6.19,18.78-6.19,18.78Z" transform="translate(-149.05 -13)"/><path class="cls-7" d="M958.08,386.49a6.35,6.35,0,0,1-2.53,2.34,7.53,7.53,0,0,1-3.45.57,8.3,8.3,0,0,1-3.38-.68c-2.87-1.32-3.94-4.5-5.28-7.19a3,3,0,0,0-.88-1.26,6.48,6.48,0,0,0-2.22-.51,5.53,5.53,0,0,1-3.52-3c-.74-1.36-1.18-2.86-2-4.17a4.76,4.76,0,0,0-3.92-2.39,11,11,0,0,0-3.1.84,9.25,9.25,0,0,1-8.23-1.49,8.28,8.28,0,0,0-2.43-1.69,5.66,5.66,0,0,0-1.92-.19c-1,0-2,.09-3,.16a19.63,19.63,0,0,1-1.58,1.71c1.51-.12,3-.24,4.55-.27a5.65,5.65,0,0,1,1.92.18,8.5,8.5,0,0,1,2.43,1.7,9.21,9.21,0,0,0,8.23,1.48,11.76,11.76,0,0,1,3.1-.84,5,5,0,0,1,3.92,2.4,45.91,45.91,0,0,1,2,4.17,5.5,5.5,0,0,0,3.52,3,6.48,6.48,0,0,1,2.22.51,2.92,2.92,0,0,1,1,1.24c1.35,2.69,2.42,5.87,5.29,7.19a8.63,8.63,0,0,0,3.37.68,7.51,7.51,0,0,0,3.45-.58,6.45,6.45,0,0,0,2.54-2.34,12.4,12.4,0,0,0,1.72-7.4A11.45,11.45,0,0,1,958.08,386.49Z" transform="translate(-149.05 -13)"/><ellipse class="cls-6" cx="731.69" cy="456.8" rx="7.76" ry="4.87"/><ellipse class="cls-8" cx="478.64" cy="481.61" rx="266.11" ry="246.54"/><path class="cls-9" d="M767.32,618.51c0,38.92-66,3.32-136.84,3.32S488.06,656,488.06,617c0-22.19,22.82-53.06,55.57-75.47h0c24.67-16.9,55-29,85.4-29,31.29,0,62,13.1,86.4,31.08C746.3,566.32,767.32,596.79,767.32,618.51Z" transform="translate(-149.05 -13)"/><path class="cls-10" d="M715.42,543.64c-37.63-5.26-105.7-11.66-171.79-2.09,24.67-16.9,55-29,85.4-29C660.31,512.56,691,525.65,715.42,543.64Z" transform="translate(-149.05 -13)"/><path class="cls-11" d="M488.06,320.58s-80.16,47.48-79.51,121.74S488.06,320.58,488.06,320.58Z" transform="translate(-149.05 -13)"/><path class="cls-8" d="M893.7,186.48s-72.63-4-64.07,43.1c0,0-1.72,8.33,6.46,12.12,0,0,.12-3.49,7.44-2.31a36.56,36.56,0,0,0,7.89.35,17.09,17.09,0,0,0,9.65-3.69h0s20.41-7.81,28.36-38.73c0,0,5.87-6.74,5.64-8.47l-12.26,4.84s4.19,8.19.86,15c0,0-.39-14.69-2.75-14.38-.47.07-6.36,2.84-6.36,2.84s7.2,14.27,1.72,24.63c0,0,2.06-17.58-4-23.6l-8.62,4.66s8.42,14.74,2.71,26.77c0,0,1.46-18.45-4.52-25.63L854,209.63s7.91,14.53,3.09,24.5c0,0-.63-21.47-4.78-23.09,0,0-6.84,5.59-7.88,7.88,0,0,5.41,10.54,2.06,16.11,0,0-2.06-14.31-3.75-14.39,0,0-6.82,9.48-7.53,16,0,0,.3-9.67,5.87-16.88,0,0-6.59,1-10.43,5,0,0,1.06-6.71,12.08-7.29,0,0,5.63-7.19,7.14-7.62,0,0-11-.86-17.67,1.88,0,0,5.87-6.32,19.68-3.45l7.76-5.83s-14.47-1.84-20.61.19c0,0,7.06-5.6,22.69-1.52l8.41-4.66s-12.34-2.46-19.7-1.6c0,0,7.76-3.87,22.16.33l6-2.5s-9-1.65-11.7-1.9-2.78-.95-2.78-.95a33.7,33.7,0,0,1,17,1.83S893.91,187.23,893.7,186.48Z" transform="translate(-149.05 -13)"/><path class="cls-8" d="M819.2,165.52s-32.77-1.84-28.94,19.47a5,5,0,0,0,2.91,5.47s.05-1.59,3.36-1a17.06,17.06,0,0,0,3.57.16,7.88,7.88,0,0,0,4.36-1.67h0s9.22-3.54,12.81-17.51c0,0,2.66-3,2.59-3.82l-5.54,2.19s1.9,3.7.41,6.77c0,0-.18-6.64-1.25-6.48-.21,0-2.88,1.28-2.88,1.28s3.26,6.45.81,11.13c0,0,.93-7.94-1.82-10.67l-3.89,2.11s3.8,6.67,1.22,12.1c0,0,.66-8.33-2-11.58L801.34,176s3.57,6.56,1.4,11.07c0,0-.29-9.7-2.17-10.44,0,0-3.09,2.53-3.56,3.57,0,0,2.45,4.79.93,7.28,0,0-.93-6.47-1.72-6.49,0,0-3.08,4.27-3.4,7.19a14.8,14.8,0,0,1,2.65-7.63,9.48,9.48,0,0,0-4.71,2.26s.47-3,5.46-3.29c0,0,2.55-3.25,3.23-3.45,0,0-5-.38-8,.86,0,0,2.65-2.86,8.89-1.6l3.46-2.63s-6.54-.8-9.32.08c0,0,3.19-2.52,10.26-.68l3.79-2.11s-5.57-1.11-8.9-.71c0,0,3.51-1.75,10,.15l2.72-1.13s-4.09-.75-5.28-.86-1.27-.42-1.27-.42a15.2,15.2,0,0,1,7.68.8S819.3,165.86,819.2,165.52Z" transform="translate(-149.05 -13)"/><ellipse class="cls-1" cx="955.68" cy="667.32" rx="24.27" ry="3.48"/><ellipse class="cls-1" cx="30.53" cy="724.9" rx="26.09" ry="3.59"/><ellipse class="cls-1" cx="171.48" cy="729.52" rx="24.27" ry="3.48"/><ellipse class="cls-8" cx="902.55" cy="704.58" rx="36.24" ry="5.2"/><path class="cls-8" d="M1066.58,709.09a9,9,0,0,0,3.46-4.42,3.77,3.77,0,0,0-2.42-4.5c-2.21-.72-4.58.59-6.38,1.9s-3.86,2.81-6.21,2.54a7.32,7.32,0,0,0,2.92-7.5,2.94,2.94,0,0,0-.81-1.53c-1.23-1.11-3.46-.64-4.94.24-4.69,2.8-6,8.19-6,13-.47-1.75-.07-3.58-.08-5.35s-.6-3.82-2.38-4.76a8.33,8.33,0,0,0-3.61-.72c-2.11-.07-4.45.11-5.89,1.42-1.8,1.62-1.33,4.34.23,6.11s3.92,2.91,6.1,4.14a13,13,0,0,1,4.36,3.52,3.48,3.48,0,0,1,.32.64h13.21A37.85,37.85,0,0,0,1066.58,709.09Z" transform="translate(-149.05 -13)"/><path class="cls-8" d="M235,671.65s5.09,5.92-2.35,14.85S219.09,703,221.54,708.59c0,0,11.23-16.62,20.4-16.86S245.07,681.64,235,671.65Z" transform="translate(-149.05 -13)"/><path class="cls-7" d="M235,671.65a6.65,6.65,0,0,1,1,1.85c8.92,9.33,13.67,18,5.1,18.25-8,.21-17.61,12.92-19.87,16.13.08.25.18.49.28.73,0,0,11.23-16.62,20.4-16.86S245.07,681.64,235,671.65Z" transform="translate(-149.05 -13)"/><path class="cls-12" d="M201.65,648.93c0,2-.28,3.62-.62,3.62s-.61-1.58-.61-3.62.34-1,.69-1S201.65,646.94,201.65,648.93Z" transform="translate(-149.05 -13)"/><path class="cls-12" d="M205,651.32c-2.15.95-4,1.53-4.18,1.28s1.45-1.2,3.6-2.16,1.3-.26,1.46,0S207.19,650.36,205,651.32Z" transform="translate(-149.05 -13)"/><path class="cls-8" d="M208.12,671.65s-5.09,5.92,2.34,14.85,13.59,16.51,11.13,22.09c0,0-11.24-16.62-20.4-16.86S198.06,681.64,208.12,671.65Z" transform="translate(-149.05 -13)"/><path class="cls-7" d="M208.12,671.65a6.65,6.65,0,0,0-1,1.85c-8.92,9.33-13.67,18-5.1,18.25,8,.21,17.62,12.92,19.86,16.13a4.93,4.93,0,0,1-.27.73s-11.24-16.62-20.4-16.86S198.06,681.64,208.12,671.65Z" transform="translate(-149.05 -13)"/><path class="cls-12" d="M153.75,648.93c0,2,.27,3.62.61,3.62s.61-1.58.61-3.62-.34-1-.68-1S153.75,646.94,153.75,648.93Z" transform="translate(-149.05 -13)"/><path class="cls-12" d="M150.35,651.32c2.15.95,4,1.53,4.2,1.28s-1.46-1.2-3.61-2.16-1.31-.26-1.46,0S148.2,650.36,150.35,651.32Z" transform="translate(-149.05 -13)"/><path class="cls-13" d="M155.45,676.32s14.88-.37,19.37-3,22.9-5.7,24-1.58,22.36,20.76,5.56,20.87-39-2.14-43.51-4.36S155.45,676.32,155.45,676.32Z" transform="translate(-149.05 -13)"/><path class="cls-14" d="M204.67,691.22c-16.8.11-39-2.14-43.51-4.36-3.41-1.69-4.76-7.76-5.22-10.56h-.49s1,9.78,5.41,12,26.71,4.46,43.51,4.35c4.85,0,6.52-1.44,6.44-3.52C210.13,690.4,208.29,691.19,204.67,691.22Z" transform="translate(-149.05 -13)"/><path class="cls-9" d="M533.08,462.29c5.06-.27,28.9-1.93,44-9.93a18.32,18.32,0,0,1,8-2.18c4.81-.13,10.35,1.73,6.81,12.16-5.75,17-39.1,36.22-59.81,35.16-19.91-1-43.52-8.46-59.12-34.59a15.06,15.06,0,0,1-2.13-8.22c.18-5.28,2.25-11.89,12.94-4.52,14.44,9.95,41.83,11.84,47.33,12.12Q532.11,462.34,533.08,462.29Z" transform="translate(-149.05 -13)"/><path class="cls-9" d="M724.58,462.29c5.06-.27,28.89-1.93,44-9.93a18.28,18.28,0,0,1,8-2.18c4.81-.13,10.35,1.73,6.8,12.16-5.74,17-39.1,36.22-59.8,35.16-19.91-1-43.53-8.46-59.12-34.59a15,15,0,0,1-2.13-8.22c.18-5.28,2.25-11.89,12.94-4.52,14.44,9.95,41.83,11.84,47.33,12.12Q723.61,462.34,724.58,462.29Z" transform="translate(-149.05 -13)"/><text class="cls-15" transform="translate(182.92 93.94) scale(0.63 1)"><tspan class="cls-16">F</tspan><tspan x="61.27" y="0">eeling Dep</tspan><tspan class="cls-17" x="603.11" y="0">r</tspan><tspan x="644.21" y="0">essed?</tspan></text></svg>