<?xml version="1.0" encoding="utf-8"?>
<!-- Generator: Adobe Illustrator 24.0.0, SVG Export Plug-In . SVG Version: 6.00 Build 0)  -->
<svg version="1.1" id="Layer_1" xmlns="http://www.w3.org/2000/svg" xmlns:xlink="http://www.w3.org/1999/xlink" x="0px" y="0px"
	 viewBox="0 0 980 733" style="enable-background:new 0 0 980 733;" xml:space="preserve">
<style type="text/css">
	.st0{opacity:0.1;fill:#D311AF;enable-background:new    ;}
	.st1{fill:url(#SVGID_1_);}
	.st2{fill:#3F3D56;}
	.st3{opacity:0.1;}
	.st4{fill:#FBBEBE;}
	.st5{fill:#575A89;}
	.st6{opacity:0.1;enable-background:new    ;}
	.st7{fill:#D311AF;}
	.st8{fill:#444053;}
	.st9{fill:#F6F8FB;}
	.st10{opacity:5.000000e-02;enable-background:new    ;}
	.st11{fill:#FFD037;}
	.st12{fill:#A8A8A8;}
	.st13{opacity:0.2;enable-background:new    ;}
	.st14{fill:#FFFFFF;}
	.st15{font-family:'NunitoSans-SemiBold';}
	.st16{font-size:97.7015px;}
</style>
<title>feel</title>
<path class="st0" d="M41.2,429c15,53.6,46.7,100,96.8,122.5c104.1,46.7,338.9,22.6,514.2-5c90.7-14.3,170.3-53.8,228.2-109.3
	L41.2,429z"/>
<path class="st0" d="M960.1,176.5H864c-4.6,0-8.3-3.1-8.3-7s3.7-7,8.3-7h16.6c-4.6,0-8.3-3.1-8.3-7s3.7-7,8.3-7h-11.9
	c-4.6,0-8.3-3.1-8.3-7s3.8-7,8.3-7H919c-11.1-4.3-24.2-7.4-39.2-9c-136.8-14.7-185.7-5-202.9,5c-21.7,12.7-45.5,21.5-70.3,25.9
	c-84.4,14.6-242.3,32.2-385.4-5.6c-71.1-18.8-124,12.9-155.7,66h911.5c-1.2-15.4-4.8-29.6-11.3-42.1
	C964,175.8,962.1,176.5,960.1,176.5z"/>
<path class="st0" d="M33,317.1c-3.7,31.2-2.4,62.8,3.7,93.6L881,436.6c23-22.1,42.8-47.3,58.7-75L33,317.1z M367,383.8h-16.7
	c4.6,0,8.3,3.1,8.3,7s-3.8,7-8.3,7h-96.1c-4.6,0-8.3-3.1-8.3-7s3.8-7,8.3-7h16.6c-4.6,0-8.3-3.1-8.3-7s3.7-7,8.3-7h-11.9
	c-4.6,0-8.3-3.1-8.3-7s3.7-7,8.3-7H355c4.6,0,8.3,3.1,8.3,7s-3.7,7-8.3,7H367c4.6,0,8.3,3.1,8.3,7S371.5,383.8,367,383.8z"/>
<path class="st0" d="M976.9,217.4L55.2,236.2C44,260.4,36.6,287.7,33.1,316h927.6c6-16.5,10.5-33.5,13.4-50.9
	C977,248.5,978,232.4,976.9,217.4z M220.3,279h-16.6c4.6,0,8.3,3.1,8.3,7s-3.8,7-8.3,7h-96.2c-4.6,0-8.3-3.1-8.3-7s3.7-7,8.3-7h16.6
	c-4.6,0-8.3-3.1-8.3-7s3.7-7,8.3-7h-11.9c-4.6,0-8.3-3.1-8.3-7s3.8-7,8.3-7h96.1c4.6,0,8.3,3.1,8.3,7s-3.7,7-8.3,7h11.9
	c4.6,0,8.3,3.1,8.3,7S224.8,279,220.3,279z"/>
<ellipse class="st0" cx="479.7" cy="678.4" rx="402.9" ry="31.4"/>
<linearGradient id="SVGID_1_" gradientUnits="userSpaceOnUse" x1="999.5927" y1="779.3387" x2="999.5927" y2="384.4005" gradientTransform="matrix(1 0 0 1 -199.04 -55.29)">
	<stop  offset="0" style="stop-color:#808080;stop-opacity:0.25"/>
	<stop  offset="0.54" style="stop-color:#808080;stop-opacity:0.12"/>
	<stop  offset="1" style="stop-color:#808080;stop-opacity:0.1"/>
</linearGradient>
<path class="st1" d="M894.1,438.1v-0.4l0,0c-0.2-0.9-0.5-1.8-1.1-2.6c-2-3-4.8-5.4-8-7c-5.7-2.9-13.5-4.1-15.8-9.6
	c-0.5-1.8-0.9-3.6-1.1-5.4c-1.4-5.8-5.8-10.5-11.5-12.2c-2.7-0.8-5.6-1.1-8.3-2.1c-5.9-2.3-9-8-11.6-13.3
	c-3.4-6.8-6.8-13.6-10.2-20.5c-2.8,1.1-5.9,0.8-8.4-0.9c-2.3-1.6-4.2-3.7-5.4-6.2c-3.5-6.3-5-13.5-9.1-19.5s-12.4-10.7-19.7-8.1
	c-1.4,0.7-2.9,1.2-4.4,1.7c-6.2,1.4-13.1-5.2-18.5-2c-0.9,0.5-1.6,1.2-2.1,2.1V332c-0.7,1.3-1.1,2.7-1.1,4.2l0,0v1
	c0,1.1,0.1,2.3,0.1,3.5c0,1-0.1,2-0.2,2.9v-0.1c-0.1,0.5-0.3,1.1-0.5,1.6c-1.4,3.5-5.2,5.7-7,9v-0.2c-0.2,0.4-0.4,0.7-0.5,1.1
	c-0.3,0.8-0.5,1.7-0.5,2.6c-0.2,6.1,6.8,11.8,7.6,18.4c0.6,4.6,1.7,6.1,6,8.7l0.9,0.6c-0.4,0-0.8,0-1.2,0.1c-0.2,0-0.3,0-0.5,0
	c-1.5-0.4-3.1-0.1-4.4,0.7c-3.3,2.4-11,0.5-14.4,0s-15.2,0.9-16.8,7s-4.5,18.5-4.5,18.5s0,7.9-1,9.4c0,0.1,0,0.2,0,0.3
	c0,2.2,0.1,15.5-2.2,19c-0.6,0.8-0.5,2.6-0.1,4.7c-2.4,2.9-4.7,6.3-4.3,8.5c0.7,4.5,10.7,18.9,25,11.2c0,0,8.1-13.8-2.1-21.1
	l0.4-1.6c3.1,3.5,5.4,6,5.4,6s0.1,0.3,0.3,0.8h-0.3c1.3,3.3,2.1,6.9,2.4,10.5c0,1.3-0.3,2.6-0.8,3.8h0.2c-0.1,0.3-0.2,0.5-0.3,0.8
	c-0.5,1.4-1.5,2.6-2.7,3.4c-7.1,4.7-15.3,38.1-15.3,38.1s-16.2,54.1-19.4,57.1c-2.7,2.5,14.1,9.6,26.7,8.8c1.8-0.1,3.5-0.4,5.2-0.9
	c0.1,0.8,0.2,1.6,0.2,2.3c0.3,2.4,0.5,4.6,0.7,5.3c0.5,1.7,1.3,19.5,1.3,19.5s-1.8,11.5-1.4,19.6c0,0.5,0.1,1.1,0.1,1.6l-1.6,0.2
	c-2.4,5,7.4,46.3,8.8,49.8c0.9,2.7,1.4,5.6,1.5,8.4c0,0-0.9,2.9-0.1,4.5c0.4,1,0.7,2,0.9,3.1c-0.3,1.5-0.2,3,0.3,4.4
	c0.9,1.8-0.2,4.8-0.2,4.8s-0.3,12-3,18.6c-1.5,3.6-0.8,7.7,1.8,10.6c0.2,0.2,0.4,0.4,0.6,0.7c0,0,14.8,0.1,17.3,0h0.4
	c1-0.1,3.7-11,1.3-16.2S768,696,768,696v-9.5c0,0,2.7-2.3,0-7.2s-2.2-6.4-2.2-6.4s3-7.9-0.2-10.4s0.6-12.2,0.6-12.2l1-32.1
	c-0.6-0.2-1.1-0.3-1.7-0.4c-0.1-0.5-0.1-1.1-0.2-1.7c-0.6-5.8-1.1-13.7,0.2-16s2-21.9,2.2-35.6l13.6,0.5c0.3,6.4,0.6,12.2,0.8,13
	c0.5,1.7,1.3,19.5,1.3,19.5s-1.8,11.5-1.4,19.6c0,0.5,0.1,1.1,0.1,1.6l-1.6,0.2c-2.4,5,7.4,46.3,8.8,49.8c0.9,2.7,1.4,5.6,1.5,8.4
	c0,0-0.9,2.9-0.2,4.5c0.4,1,0.7,2,0.9,3.1c-0.3,1.5-0.2,3,0.3,4.4c0.9,1.8-0.2,4.8-0.2,4.8s-0.3,12-3,18.6
	c-1.5,3.6-0.7,7.7,1.9,10.6c0.2,0.2,0.4,0.5,0.6,0.7c0,0,14.8,0.1,17.3,0h0.3c1-0.1,3.7-11,1.3-16.2S810,696,810,696v-9.5
	c0,0,2.7-2.3,0-7.2s-2.2-6.4-2.2-6.4s3-7.9-0.1-10.4s0.6-12.2,0.6-12.2l1.1-32.1c-0.6-0.2-1.1-0.3-1.7-0.4c-0.1-0.5-0.1-1.1-0.2-1.7
	c-0.6-5.8-1.1-13.7,0.2-16c1.1-1.8,1.7-13.7,2-25.3c0-0.8,0-1.6,0.1-2.4c6.2-0.2,12.5-0.9,18.6-1.9c0,0-7.3-23.8-5-27.7
	c1-1.7-0.4-10.6-2.3-20.2c2.7,2,5.9,3.1,9.3,3.1c3.2,5.8,13.1,19.1,18.7,21.2c6.5,2.4,1.6-18.9-1.5-21.9c-1.5-1.7-2.7-3.5-3.7-5.5
	c0.1-0.1,0.2-0.2,0.3-0.3c0.1-0.1,0.2-22.6-1.3-22.2s-3.3-3.4-3.3-3.4l-4.5-37.4l-1.9-15.7l0,0c1.6,1.1,3.5,1.8,5.2,2.9
	c4.5,3,6,8.4,7.9,13.1c1.6,3.9,3.9,7.8,7.6,10.2s9.2,3.1,12.9,0.6c3.5-2.3,4.5-6.5,5.2-10.4c6.3,2,13.9-3.4,13-9.4
	c-0.2-1.5-0.8-3.1,0-4.4c1.7-2.5,6.9-1.1,8.6-3.6c0.3-0.4,0.4-0.9,0.4-1.5C894,438.2,894.1,438.2,894.1,438.1z M810.3,458.7
	c-0.1,1.4,2,12.9,3.8,22c-1.4-5.7-4.3-11.7-9.8-15.9c0-0.3,0-0.5-0.1-0.8h0.1c0,0-0.2-2.3-0.3-5.5c0-2.9,0.2-5.8,0.7-8.6v-0.1h-0.1
	c0-0.2,0.1-0.5,0.1-0.7c0.3-2.4,1.1-4.8,2.1-7c0.5-0.9,1-1.7,1.6-2.5C809.3,447.3,810.4,457.2,810.3,458.7L810.3,458.7z M815,485.3
	c0.8,3.9,1.3,6.7,1.3,6.7l4.6,29.1v0.1c-2.4-12.3-5.6-25.3-5.6-25.3C815.6,492.4,815.5,488.9,815,485.3z"/>
<path class="st2" d="M758.9,377.6c-0.9-7.4-9.5-13.8-6.9-20.8c1.4-3.8,5.8-6.2,7.3-10c1-2.5,0.5-5.3,0.6-7.9s0.7-5.6,3.1-7.1
	c5.2-3.2,11.8,3.4,17.9,2c1.5-0.5,2.9-1,4.2-1.7c7-2.6,15,2.1,19,8.1s5.4,13.1,8.8,19.4c1.2,2.5,3,4.6,5.2,6.2
	c2.4,1.6,5.4,1.9,8.1,0.9L836,387c2.6,5.2,5.5,10.9,11.2,13.2c2.5,1,5.4,1.3,8,2.1c5.6,1.7,9.9,6.3,11.2,12.1c0.2,1.8,0.5,3.6,1,5.4
	c2.2,5.5,9.8,6.7,15.3,9.6c3.1,1.6,5.8,4,7.8,7c0.9,1.4,1.6,3.2,0.7,4.6c-1.7,2.5-6.7,1-8.3,3.5c-0.8,1.3-0.2,2.9,0,4.4
	c0.8,5.9-6.6,11.4-12.6,9.3c-0.7,3.8-1.7,8-5.1,10.3c-3.6,2.5-8.9,1.8-12.5-0.6s-5.8-6.3-7.4-10.1c-1.9-4.7-3.3-10-7.7-13.1
	c-1.6-1.1-3.5-1.8-5-2.9c-3.5-2.4-5.2-6.5-6.4-10.4c-1.6-4.9-2.9-9.9-5.2-14.5s-6-8.9-11-11c-4.7-2-10.1-1.8-15-3.4
	c-8.3-2.7-14.5-9.2-22.8-12.3c-2.6-1-5.2-2.3-7.5-3.9C760.5,383.7,759.4,382.2,758.9,377.6z"/>
<g class="st3">
	<path d="M759.6,345.2c0.2-0.3,0.3-0.7,0.5-1c1-2.5,0.5-5.3,0.5-7.9c0-0.9,0.1-1.8,0.3-2.7c-0.8,1.6-1.2,3.3-1.1,5.1
		C759.9,340.9,759.9,343.1,759.6,345.2z"/>
	<path d="M866,466c-3.6,2.5-8.9,1.8-12.5-0.6s-5.8-6.3-7.3-10.1c-1.9-4.7-3.3-10-7.7-13.1c-1.6-1.1-3.5-1.8-5-2.9
		c-3.5-2.5-5.2-6.5-6.4-10.4c-1.6-4.9-2.8-9.9-5.2-14.5s-6-8.9-11-11c-4.7-2-10.1-1.8-15-3.4c-8.4-2.7-14.5-9.2-22.9-12.3
		c-2.6-1-5.2-2.3-7.5-3.9c-4.1-2.6-5.2-4.1-5.8-8.7c-0.9-6.9-8.5-13-7.3-19.5c-0.2,0.4-0.4,0.7-0.5,1.1c-2.6,7,6,13.4,6.9,20.8
		c0.6,4.6,1.7,6.1,5.8,8.7c2.4,1.6,4.9,2.9,7.5,3.9c8.3,3.1,14.5,9.6,22.9,12.3c4.9,1.6,10.3,1.5,15,3.4c5,2.1,8.6,6.4,11,11
		s3.6,9.6,5.2,14.5c1.3,3.9,2.9,7.9,6.4,10.4c1.6,1.1,3.5,1.8,5,2.9c4.3,3,5.8,8.4,7.7,13.1c1.6,3.9,3.8,7.7,7.4,10.1
		s8.9,3.1,12.5,0.6c2.3-1.6,3.5-4,4.2-6.6C868.6,463.4,867.5,464.9,866,466z"/>
	<path d="M883.7,442c-0.3,0.6-0.5,1.2-0.4,1.9c2-1.8,6.3-0.7,7.9-3c0.4-0.6,0.5-1.2,0.4-1.9C889.6,440.7,885.2,439.7,883.7,442z"/>
	<path d="M871,455.6c-0.2,0.8-0.3,1.6-0.5,2.5c5.3,1.5,11.4-2.4,12.2-7.4C880.6,454.6,875.5,457.1,871,455.6z"/>
</g>
<path class="st4" d="M770,381.4c0,0,2.9,5.4-5.6,5.5s5.5,34.9,5.5,34.9l14.1,16.6l17.5-8.8l1-24.2l1.3-14.6c0,0-16.4-4.9-13.4-11.5
	S770,381.4,770,381.4z"/>
<path class="st5" d="M820.9,523.2c0,0,10.3,9.4,22.4-3.1L834,511h-11.7L820.9,523.2z"/>
<path class="st6" d="M822,511l-1.4,12.2c0,0,10.3,9.4,22.4-3.1"/>
<path class="st4" d="M839.4,512.6c0,0,4.2,10.1,7.2,13.2s7.8,24.2,1.4,21.8s-18.4-20.2-19.1-23.3s-1-11.7-1-11.7L839.4,512.6z"/>
<polygon class="st5" points="749,564.6 804.8,566.6 798.3,544.7 770.2,544.2 "/>
<polygon class="st6" points="756.8,564.6 812.5,566.6 806.1,544.7 778,544.2 "/>
<path class="st4" d="M767.3,600.6c-1.3,2.3-0.8,10.2-0.2,16c0.4,3.7,0.8,6.6,0.8,6.6s-20.8,6-24,0.8c-0.8-1.3-1.2-3.6-1.3-6.3
	c-0.4-8,1.3-19.5,1.3-19.5s-0.9-17.7-1.3-19.5c-0.2-0.7-0.4-2.9-0.7-5.3c-0.4-3.5-0.8-7.5-0.8-7.5l28.5-14c0,0,0,2.6,0,6.7
	C769.4,571.2,769,597.8,767.3,600.6z"/>
<path class="st6" d="M767.8,623.2c0,0-20.8,6-24,0.8c-0.8-1.3-1.2-3.6-1.3-6.3c4.3-0.6,17.4-2.3,24.5-1
	C767.4,620.3,767.8,623.2,767.8,623.2z"/>
<path class="st2" d="M768.5,723.9h-0.3c-2.5,0.1-16.8,0-16.8,0c-0.2-0.2-0.4-0.4-0.6-0.6c-2.6-2.9-3.3-7-1.9-10.5
	c2.6-6.5,2.9-18.5,2.9-18.5s1-3.1,0.1-4.8c-0.5-1.4-0.6-2.9-0.3-4.4c-0.1-1.1-0.4-2.1-0.9-3.1c-0.7-1.6,0.1-4.5,0.1-4.5
	c-0.1-2.8-0.6-5.7-1.4-8.4c-1.3-3.5-10.8-44.6-8.5-49.5c0,0,20.1-3.2,27.8-0.8l-1,32c0,0-3.6,9.6-0.6,12.1s0.1,10.4,0.1,10.4
	s-0.4,1.5,2.2,6.4s0,7.2,0,7.2v9.5c0,0-2,6.4,0.3,11.6S769.6,723.7,768.5,723.9z"/>
<path class="st4" d="M808,600.6c-1.3,2.3-0.8,10.2-0.2,16c0.4,3.7,0.8,6.6,0.8,6.6s-20.8,6-24,0.8c-0.8-1.3-1.2-3.6-1.3-6.3
	c-0.4-8,1.3-19.5,1.3-19.5s-0.9-17.7-1.3-19.5c-0.2-0.9-0.6-9.8-1-17.8c-0.3-6.8-0.5-13-0.5-13l28.5,4.1c0,0,0,11.6-0.3,23.5
	C809.7,587,809.1,598.8,808,600.6z"/>
<path class="st6" d="M808.6,623.2c0,0-20.8,6-24,0.8c-0.8-1.3-1.2-3.6-1.3-6.3c4.3-0.6,17.5-2.3,24.5-1
	C808.2,620.3,808.6,623.2,808.6,623.2z"/>
<path class="st2" d="M809.3,723.9H809c-2.5,0.1-16.8,0-16.8,0c-0.2-0.2-0.4-0.4-0.6-0.6c-2.5-2.9-3.3-7-1.8-10.5
	c2.6-6.6,2.8-18.5,2.8-18.5s1-3.1,0.2-4.8c-0.5-1.4-0.6-2.9-0.3-4.4c-0.1-1.1-0.4-2.1-0.9-3.1c-0.7-1.6,0.2-4.5,0.2-4.5
	c-0.1-2.8-0.6-5.7-1.4-8.4c-1.3-3.5-10.8-44.6-8.5-49.5c0,0,20.1-3.2,27.8-0.8l-1,32c0,0-3.6,9.6-0.6,12.1s0.2,10.4,0.2,10.4
	s-0.4,1.5,2.2,6.4s0,7.2,0,7.2v9.5c0,0-2,6.4,0.3,11.6S810.4,723.7,809.3,723.9z"/>
<ellipse class="st6" cx="781.2" cy="368.9" rx="20.3" ry="18.8"/>
<ellipse class="st4" cx="781.2" cy="368.1" rx="20.3" ry="18.8"/>
<path class="st6" d="M741.1,565.9l28.5-14c0,0,0,2.6,0,6.7c-4.2,2.3-10.4,5.8-16.5,9c-3.3,1.8-6.5,3.5-9.2,5c-0.6,0.3-1.3,0.6-2,0.8
	C741.5,569.8,741.1,565.9,741.1,565.9z"/>
<path class="st6" d="M810.4,551.9c0,0,0,11.6-0.3,23.5H810c-2.1,0.1-4.3,0-6.4-0.2c-3.7-0.4-6.7-1.3-7.8-3.1
	c-2.2-3.5-8.2-8-13.4-11.3c-0.3-6.8-0.5-13-0.5-13L810.4,551.9z"/>
<path class="st5" d="M805.1,450.3c-0.7,5.2-0.9,10.5-0.4,15.7c13.1,10,10.6,31,10.6,31s10.1,42.6,7.9,46.5s4.9,27.6,4.9,27.6
	c-6,1.1-12,1.7-18.1,1.9c-2.1,0.1-4.3,0-6.4-0.2c-3.7-0.4-6.7-1.3-7.8-3.1c-4-6.5-21.4-16.2-21.4-16.2s-11,6.1-21.3,11.7
	c-3.3,1.8-6.5,3.5-9.2,5c-2.2,1.1-4.7,1.7-7.2,1.8c-12.2,0.8-28.5-6.2-25.9-8.8c3.2-3.1,18.8-56.9,18.8-56.9s7.9-33.3,14.8-38
	c1.2-0.8,2.1-2,2.6-3.4c2.4-6.1-1.6-15.8-1.6-15.8s-22.3-25.4-21.3-26.9s1-9.3,1-9.3s2.7-12.4,4.3-18.4s12.9-7.5,16.2-6.9
	s10.8,2.4,13.9,0s8.5,0.9,8.5,0.9l13.1,3.3l11.7-6.3c0,0,11.8,0.6,12.8,2s16.5,4.3,16.5,4.3c7.9,4.9,7.6,28.4,7.6,28.4
	s-19,15.3-22.9,23.2C806.1,445.6,805.4,447.9,805.1,450.3z"/>
<path class="st5" d="M825.6,417l4.3,3.2l4.5,37.2l4.5,37.3c0,0,1.7,3.7,3.2,3.3s1.3,22.1,1.3,22.1s-16.5-9.4-22.4,3.1l-4.6-30.2
	c0,0-5.9-30.8-5.8-33.2s-3-28.4-3-28.4L825.6,417z"/>
<path class="st5" d="M727.3,418.7l-3.2,3.6c0,0,0.3,15.5-2.2,19.2s6.8,25.6,10.2,24.2s11.2-35.4,11.2-35.8S727.3,418.7,727.3,418.7z
	"/>
<path class="st5" d="M727,440.7c0,0-10.1,9.5-9.3,14s10.3,18.8,24.2,11.1C741.8,465.8,754.6,443.5,727,440.7z"/>
<path class="st6" d="M758.8,692.2c-2.6,0.1-17.5,0-17.5,0c-0.2-0.2-0.4-0.4-0.6-0.6C744.5,690.4,752.7,688.8,758.8,692.2z"/>
<path class="st6" d="M801.5,692.2c-2.6,0.1-17.5,0-17.5,0c-0.2-0.2-0.4-0.4-0.6-0.6C787.1,690.4,795.4,688.8,801.5,692.2z"/>
<path class="st6" d="M754.1,489.6c-2.2,19.5-1.5,58.3-1,75.6c-3.3,1.8-6.5,3.5-9.2,5c-2.2,1.1-4.7,1.7-7.2,1.8
	C735.7,566.8,748.4,513.2,754.1,489.6z"/>
<path class="st6" d="M756.8,478.5c-0.1,0.3-1.1,4.5-2.7,11.1C754.7,484,755.5,480,756.8,478.5z"/>
<path class="st6" d="M791.8,476.4c0,0,12.2,71.1-24,79.9C767.8,556.3,792.9,552.8,791.8,476.4z"/>
<path class="st6" d="M810,573c-2.1,0.1-4.3,0-6.4-0.2l-9.8-97.2C800,479.4,807.4,548.4,810,573z"/>
<path class="st6" d="M766.1,357.1c0.6,0,1.3,0,1.9,0.2c0.9,0.4,1.7,1,2.4,1.7c2.3,1.8,5.4,2.3,8.2,1.5c1-0.4,2-0.7,3.1-0.8
	c1.6,0.1,3.1,1,3.9,2.4c0.8,1.3,1.3,2.8,2,4.2c0.7,1.5,2,2.6,3.5,3c0.8,0,1.5,0.2,2.2,0.5c0.4,0.3,0.8,0.7,1,1.2
	c1.3,2.7,2.4,5.9,5.3,7.2c1.1,0.5,2.2,0.7,3.4,0.7c1.2,0.1,2.4-0.1,3.5-0.6c1-0.5,1.9-1.3,2.5-2.3c1.8-2.8,2-6.1,1.6-9.3
	c-0.5-4.1-2.1-7.9-4.5-11.2c-5.5-7.1-14.3-10.8-23.2-9.9c-1.6,0.2-3.1,0.4-4.6,0.8c-5.5,1.4-10.9,3.9-14.2,8.2
	c-0.8,1.1-1.7,2.1-2.7,3C763.1,357.2,764.6,357.1,766.1,357.1z"/>
<path class="st2" d="M766.1,356.3c0.6,0,1.3,0,1.9,0.2c0.9,0.4,1.7,1,2.4,1.7c2.3,1.8,5.4,2.3,8.2,1.5c1-0.4,2-0.7,3.1-0.8
	c1.6,0.1,3.1,1,3.9,2.4c0.8,1.3,1.3,2.8,2,4.2c0.7,1.5,2,2.6,3.5,3c0.8,0,1.5,0.2,2.2,0.5c0.4,0.3,0.8,0.7,1,1.2
	c1.3,2.7,2.4,5.9,5.3,7.2c1.1,0.5,2.2,0.7,3.4,0.7c1.2,0.1,2.4-0.1,3.5-0.6c1-0.5,1.9-1.3,2.5-2.3c1.8-2.8,2-6.1,1.6-9.3
	c-0.5-4.1-2.1-7.9-4.5-11.2c-5.5-7-14.3-10.8-23.2-9.9c-1.6,0.2-3.1,0.4-4.6,0.8c-5.5,1.4-10.9,3.9-14.2,8.2c-0.8,1.1-1.7,2.1-2.7,3
	C763.1,356.4,764.6,356.3,766.1,356.3z"/>
<path class="st6" d="M744.1,401c0,0,1,7.5-2.4,9.3S744.1,401,744.1,401z"/>
<path class="st6" d="M817.3,458.8c0,0,8.2-11.2,9.3-8S817.3,458.8,817.3,458.8z"/>
<path class="st6" d="M817.9,462.5c0,0,8.1-9.2,8.8-5.6S817.9,462.5,817.9,462.5z"/>
<path class="st6" d="M794.1,451.6c-2.9,0-5.7-0.8-8.1-2.5h-0.7c-2.5,2.1-5.6,3.2-8.9,3.1c-3.4,0.1-6.7-1.1-9.2-3.4h-0.9
	c-5.2,3.9-12.4,3.7-17.5-0.3l-3.4-0.1c0,0,4,9.8,1.6,15.8l57.7,1c-0.4-5.2-0.3-10.5,0.4-15.7v-0.1l-3.2-0.1
	C799.6,450.9,796.9,451.6,794.1,451.6z"/>
<path class="st6" d="M794.1,453.2c-2.9,0-5.7-0.8-8.1-2.5h-0.7c-2.5,2.1-5.6,3.2-8.9,3.1c-3.4,0.1-6.7-1.1-9.2-3.4h-0.9
	c-5.2,3.9-12.4,3.7-17.5-0.3l-3.4-0.1c0,0,4,9.8,1.6,15.8l57.7,1c-0.4-5.2-0.3-10.5,0.4-15.7V451l-3.2,0
	C799.6,452.5,796.9,453.2,794.1,453.2z"/>
<path class="st2" d="M794.1,452.4c-2.9,0-5.7-0.8-8.1-2.5h-0.7c-2.5,2.1-5.6,3.2-8.9,3.1c-3.4,0.1-6.7-1.1-9.2-3.4h-0.9
	c-5.2,3.9-12.4,3.7-17.5-0.3l-3.4-0.1c0,0,4,9.8,1.6,15.8l57.7,1c-0.4-5.2-0.3-10.5,0.4-15.7v-0.1l-3.2,0
	C799.6,451.7,796.9,452.4,794.1,452.4z"/>
<path class="st6" d="M791.6,399.1c0,0,12.1,0.7,12.2,2.3S791.6,399.1,791.6,399.1z"/>
<path class="st6" d="M762.1,392.3c0,0-12.1,0.7-12.2,2.3S762.1,392.3,762.1,392.3z"/>
<path class="st6" d="M808.5,425l-0.4-0.2c3.1,2.6,2.6,8.2-1.2,12.9s-9.6,6.6-13.1,4.5c0.1,0.1,0.2,0.2,0.3,0.3
	c3.5,2.4,9.5,0.5,13.5-4.3S812,427.4,808.5,425z"/>
<path class="st6" d="M741.8,437.1c-3.1-5.1-2.7-10.8,0.8-13l-0.4,0.2c-3.8,2-4.3,7.9-1.2,13.2s8.8,8,12.7,6.1l0.4-0.2
	C750.3,444.9,744.9,442.2,741.8,437.1z"/>
<path class="st6" d="M746,393.8L746,393.8l-1.1,1.6L742,394l1.5-2.1C744.4,392.3,745.3,392.9,746,393.8z"/>
<path class="st4" d="M727.9,452.9c0,0,2.5-11-0.9-14.5s-2.3-21.9,2.9-21.5s12.9,14.9,11.7,18s-6.2,18.8-6.2,18.8L727.9,452.9z"/>
<path class="st6" d="M809,373.5c-0.6,1-1.5,1.8-2.5,2.3c-1.1,0.5-2.3,0.7-3.5,0.6c-1.2,0-2.3-0.2-3.4-0.7c-2.9-1.3-3.9-4.5-5.3-7.2
	c-0.2-0.5-0.5-0.9-0.9-1.3c-0.7-0.3-1.5-0.5-2.2-0.5c-1.6-0.4-2.8-1.5-3.5-3c-0.7-1.4-1.2-2.9-2-4.2c-0.8-1.4-2.3-2.3-3.9-2.4
	c-1.1,0.1-2.1,0.4-3.1,0.8c-2.8,0.8-5.9,0.3-8.2-1.5c-0.7-0.7-1.5-1.3-2.4-1.7c-0.6-0.2-1.3-0.2-1.9-0.2c-1,0-2,0.1-3,0.2
	c-0.5,0.6-1,1.2-1.6,1.7c1.5-0.1,3-0.2,4.5-0.3c0.6-0.1,1.3,0,1.9,0.2c0.9,0.4,1.7,1,2.4,1.7c2.3,1.8,5.4,2.3,8.2,1.5
	c1-0.4,2-0.7,3.1-0.8c1.6,0.1,3.1,1,3.9,2.4c0.7,1.4,1.4,2.7,2,4.2c0.7,1.5,2,2.6,3.5,3c0.8,0,1.5,0.2,2.2,0.5
	c0.4,0.3,0.8,0.7,1,1.2c1.3,2.7,2.4,5.9,5.3,7.2c1.1,0.5,2.2,0.7,3.4,0.7c1.2,0.1,2.4-0.1,3.5-0.6c1-0.5,1.9-1.3,2.5-2.3
	c1.3-2.2,1.9-4.8,1.7-7.4C810.8,369.7,810.2,371.7,809,373.5z"/>
<ellipse class="st5" cx="731.7" cy="456.8" rx="7.8" ry="4.9"/>
<ellipse class="st7" cx="478.6" cy="481.6" rx="266.1" ry="246.5"/>
<path class="st8" d="M618.3,605.5c0,38.9-66,3.3-136.8,3.3S339,643,339,604c0-22.2,22.8-53.1,55.6-75.5l0,0c24.7-16.9,55-29,85.4-29
	c31.3,0,62,13.1,86.4,31.1C597.2,553.3,618.3,583.8,618.3,605.5z"/>
<path class="st9" d="M566.4,530.6c-37.6-5.3-105.7-11.7-171.8-2.1c24.7-16.9,55-29,85.4-29C511.3,499.6,542,512.7,566.4,530.6z"/>
<path class="st10" d="M339,307.6c0,0-80.2,47.5-79.5,121.7C260.1,503.6,339,307.6,339,307.6z"/>
<path class="st7" d="M744.7,173.5c0,0-72.6-4-64.1,43.1c0,0-1.7,8.3,6.5,12.1c0,0,0.1-3.5,7.4-2.3c2.6,0.4,5.3,0.5,7.9,0.4
	c3.5-0.2,6.9-1.5,9.7-3.7l0,0c0,0,20.4-7.8,28.4-38.7c0,0,5.9-6.7,5.6-8.5l-12.3,4.8c0,0,4.2,8.2,0.9,15c0,0-0.4-14.7-2.8-14.4
	c-0.5,0.1-6.4,2.8-6.4,2.8s7.2,14.3,1.7,24.6c0,0,2.1-17.6-4-23.6l-8.6,4.7c0,0,8.4,14.7,2.7,26.8c0,0,1.5-18.4-4.5-25.6l-7.9,5.7
	c0,0,7.9,14.5,3.1,24.5c0,0-0.6-21.5-4.8-23.1c0,0-6.8,5.6-7.9,7.9c0,0,5.4,10.5,2.1,16.1c0,0-2.1-14.3-3.8-14.4c0,0-6.8,9.5-7.5,16
	c0,0,0.3-9.7,5.9-16.9c0,0-6.6,1-10.4,5c0,0,1.1-6.7,12.1-7.3c0,0,5.6-7.2,7.1-7.6c0,0-11-0.9-17.7,1.9c0,0,5.9-6.3,19.7-3.4
	l7.8-5.8c0,0-14.5-1.8-20.6,0.2c0,0,7.1-5.6,22.7-1.5l8.4-4.7c0,0-12.3-2.5-19.7-1.6c0,0,7.8-3.9,22.2,0.3l6-2.5c0,0-9-1.6-11.7-1.9
	s-2.8-0.9-2.8-0.9c5.7-0.9,11.6-0.2,17,1.8C732.1,178.7,744.9,174.2,744.7,173.5z"/>
<path class="st7" d="M670.2,152.5c0,0-32.8-1.8-28.9,19.5c-0.4,2.3,0.8,4.5,2.9,5.5c0,0,0-1.6,3.4-1c1.2,0.2,2.4,0.2,3.6,0.2
	c1.6-0.1,3.1-0.7,4.4-1.7l0,0c0,0,9.2-3.5,12.8-17.5c0,0,2.7-3,2.6-3.8l-5.5,2.2c0,0,1.9,3.7,0.4,6.8c0,0-0.2-6.6-1.2-6.5
	c-0.2,0-2.9,1.3-2.9,1.3s3.3,6.4,0.8,11.1c0,0,0.9-7.9-1.8-10.7l-3.9,2.1c0,0,3.8,6.7,1.2,12.1c0,0,0.7-8.3-2-11.6l-3.6,2.5
	c0,0,3.6,6.6,1.4,11.1c0,0-0.3-9.7-2.2-10.4c0,0-3.1,2.5-3.6,3.6c0,0,2.5,4.8,0.9,7.3c0,0-0.9-6.5-1.7-6.5c0,0-3.1,4.3-3.4,7.2
	c0.2-2.7,1.1-5.4,2.7-7.6c-1.8,0.3-3.4,1.1-4.7,2.3c0,0,0.5-3,5.5-3.3c0,0,2.5-3.2,3.2-3.4c0,0-5-0.4-8,0.9c0,0,2.7-2.9,8.9-1.6
	l3.5-2.6c0,0-6.5-0.8-9.3,0.1c0,0,3.2-2.5,10.3-0.7l3.8-2.1c0,0-5.6-1.1-8.9-0.7c0,0,3.5-1.8,10,0.1l2.7-1.1c0,0-4.1-0.8-5.3-0.9
	s-1.3-0.4-1.3-0.4c2.6-0.4,5.2-0.1,7.7,0.8C664.4,154.8,670.2,152.9,670.2,152.5z"/>
<ellipse class="st0" cx="955.7" cy="667.3" rx="24.3" ry="3.5"/>
<ellipse class="st0" cx="30.5" cy="724.9" rx="26.1" ry="3.6"/>
<ellipse class="st0" cx="171.5" cy="729.5" rx="24.3" ry="3.5"/>
<ellipse class="st7" cx="902.5" cy="704.6" rx="36.2" ry="5.2"/>
<path class="st7" d="M917.5,696.1c1.6-1.1,2.8-2.6,3.5-4.4c0.5-1.9-0.6-3.9-2.4-4.5c-2.2-0.7-4.6,0.6-6.4,1.9s-3.9,2.8-6.2,2.5
	c2.4-1.7,3.5-4.6,2.9-7.5c-0.1-0.6-0.4-1.1-0.8-1.5c-1.2-1.1-3.5-0.6-4.9,0.2c-4.7,2.8-6,8.2-6,13c-0.5-1.8-0.1-3.6-0.1-5.3
	s-0.6-3.8-2.4-4.8c-1.1-0.5-2.4-0.8-3.6-0.7c-2.1-0.1-4.4,0.1-5.9,1.4c-1.8,1.6-1.3,4.3,0.2,6.1s3.9,2.9,6.1,4.1
	c1.7,0.8,3.2,2,4.4,3.5c0.1,0.2,0.2,0.4,0.3,0.6h13.2C912.3,699.6,915,698,917.5,696.1z"/>
<path class="st7" d="M85.9,658.7c0,0,5.1,5.9-2.4,14.8S70,690,72.5,695.6c0,0,11.2-16.6,20.4-16.9S96,668.6,85.9,658.7z"/>
<path class="st6" d="M85.9,658.7c0.4,0.6,0.8,1.2,1,1.8c8.9,9.3,13.7,18,5.1,18.2c-8,0.2-17.6,12.9-19.9,16.1
	c0.1,0.2,0.2,0.5,0.3,0.7c0,0,11.2-16.6,20.4-16.9S96,668.6,85.9,658.7z"/>
<path class="st11" d="M52.6,635.9c0,2-0.3,3.6-0.6,3.6s-0.6-1.6-0.6-3.6s0.3-1,0.7-1S52.6,633.9,52.6,635.9z"/>
<path class="st11" d="M55.9,638.3c-2.1,1-4,1.5-4.2,1.3s1.4-1.2,3.6-2.2s1.3-0.3,1.5,0S58.1,637.4,55.9,638.3z"/>
<path class="st7" d="M59.1,658.7c0,0-5.1,5.9,2.3,14.8S75,690,72.5,695.6c0,0-11.2-16.6-20.4-16.9S49,668.6,59.1,658.7z"/>
<path class="st6" d="M59.1,658.7c-0.4,0.6-0.8,1.2-1,1.8c-8.9,9.3-13.7,18-5.1,18.2c8,0.2,17.6,12.9,19.9,16.1
	c-0.1,0.3-0.2,0.5-0.3,0.7c0,0-11.2-16.6-20.4-16.9S49,668.6,59.1,658.7z"/>
<path class="st11" d="M4.7,635.9c0,2,0.3,3.6,0.6,3.6s0.6-1.6,0.6-3.6s-0.3-1-0.7-1S4.7,633.9,4.7,635.9z"/>
<path class="st11" d="M1.3,638.3c2.1,1,4,1.5,4.2,1.3s-1.5-1.2-3.6-2.2s-1.3-0.3-1.5,0S-0.9,637.4,1.3,638.3z"/>
<path class="st12" d="M6.4,663.3c0,0,14.9-0.4,19.4-3s22.9-5.7,24-1.6s22.4,20.8,5.6,20.9s-39-2.1-43.5-4.4S6.4,663.3,6.4,663.3z"/>
<path class="st13" d="M55.6,678.2c-16.8,0.1-39-2.1-43.5-4.4c-3.4-1.7-4.8-7.8-5.2-10.6H6.4c0,0,1,9.8,5.4,12s26.7,4.5,43.5,4.3
	c4.9,0,6.5-1.4,6.4-3.5C61.1,677.4,59.2,678.2,55.6,678.2z"/>
<path class="st8" d="M384,449.3c5.1-0.3,28.9-1.9,44-9.9c2.5-1.3,5.2-2.1,8-2.2c4.8-0.1,10.3,1.7,6.8,12.2
	c-5.8,17-39.1,36.2-59.8,35.2c-19.9-1-43.5-8.5-59.1-34.6c-1.5-2.5-2.2-5.3-2.1-8.2c0.2-5.3,2.2-11.9,12.9-4.5
	c14.4,10,41.8,11.8,47.3,12.1C382.7,449.3,383.4,449.3,384,449.3z"/>
<path class="st8" d="M575.5,449.3c5.1-0.3,28.9-1.9,44-9.9c2.5-1.3,5.2-2.1,8-2.2c4.8-0.1,10.3,1.7,6.8,12.2
	c-5.7,17-39.1,36.2-59.8,35.2c-19.9-1-43.5-8.5-59.1-34.6c-1.5-2.5-2.2-5.3-2.1-8.2c0.2-5.3,2.2-11.9,12.9-4.5
	c14.4,10,41.8,11.8,47.3,12.1C574.2,449.3,574.9,449.3,575.5,449.3z"/>
<text transform="matrix(0.8714 0 0 1 121 101.5559)" class="st14 st15 st16">Feeling Depressed?</text>
</svg>
