<svg id="Layer_1" data-name="Layer 1" xmlns="http://www.w3.org/2000/svg" viewBox="0 0 496.55 125"><defs><style>.cls-1,.cls-2{fill:#d311af;}.cls-1{fill-rule:evenodd;}.cls-2{font-size:78.56px;font-family:NunitoSans-Regular, Nunito Sans;}.cls-3{letter-spacing:-0.08em;}</style></defs><title>logopinkweb</title><path class="cls-1" d="M436.63,260.3c.27.43.32.61.42.66q11,5.07,22.07,10.14a22.68,22.68,0,0,1,3.55,1.87,4,4,0,0,1,2,4.3c-.45,2-1.75,3.39-3.7,3.34a37.73,37.73,0,0,1-7.4-.92c-9-2.1-17.9-4.53-26.9-6.48a29.12,29.12,0,0,0-14.54.16c-3.51,1-4.12,2.75-2.25,6.06a8.48,8.48,0,0,0,1,1.42c4.07,4.61,6.13,10.28,7.22,16.33.62,3.37.12,6.73-2.4,9.31s-4.94,1.66-6.17-1.53c-1.45-3.77-2.67-7.84-4.93-11-7.21-10.12-14.44-20.31-22.48-29.66-5.93-6.89-14.5-9.41-22.95-11.8V335H554.32V285.42c-6,1.68-11.67,3.29-17.39,4.93a3.47,3.47,0,0,0-1.1.56c-4,2.94-8,5.86-12,8.86-3,2.26-6.11,4.42-8.9,7-4.58,4.21-8.84,8.84-13.47,13a12.47,12.47,0,0,1-5.51,2.4,3.35,3.35,0,0,1-2.92-1.37,4.06,4.06,0,0,1,.08-3.44,34.18,34.18,0,0,1,3.86-4.32c1.53-1.7,3.11-3.37,4.52-5.17,1.65-2.11,3.15-4.34,4.72-6.53l.93-1.32-.28-.5a6.24,6.24,0,0,0-1.63.61,33.58,33.58,0,0,0-3.88,3.05c-6.62,6.44-14.78,7.92-23.28,8.33-1.89.09-3.47-.6-4-2.83a3.82,3.82,0,0,1,2.17-4.57,21.61,21.61,0,0,1,5.36-1.71c3-.56,6.73-2.39,8.31-4.49l-.87.44c-5.74,3.22-12.06,4.08-18.34,5-2.59.38-4.52-.86-5-2.7-.5-2,.56-4.18,2.92-5.33a34.4,34.4,0,0,1,5.14-1.8,54.93,54.93,0,0,0,16.55-7.85,16,16,0,0,0,2.19-2.3l-.38-.5-1.29.4a85.52,85.52,0,0,1-23.09,4.95c-1.74.1-3.45,0-3.95-2.33s.11-3.69,2.48-4.72a67,67,0,0,1,7.95-2.71c8.71-2.5,16.38-7.48,24.39-11.65a13.08,13.08,0,0,0,3.42-2.91,5.19,5.19,0,0,0,.53-7.06c-1.45-2.19-3.08-4.23-4.66-6.31a20.3,20.3,0,0,1-4.28-11.87c-.08-3.21,1.6-5.89,3.66-6.4s3.89.83,5.12,4.29c2.48,6.95,7.4,11.17,13.36,14.4,3.66,2,7.26,4.1,10.86,6.21,2.24,1.31,4.48,1.84,7,.79q9.54-4,19.16-7.76c1.33-.53,1.73-1.26,1.72-2.77-.06-11.85,0-23.71,0-35.57,0-.63-.08-1.27-.11-1.83H359.08a24.07,24.07,0,0,1,0,3.08c-.29,2.09.5,3,2.39,3.79,9.79,3.91,19.51,8,29.26,12.06a14.46,14.46,0,0,0,9.46.85c14-3.93,28.18-4.1,42.42-2.45a50.34,50.34,0,0,1,11.15,2.74c2.59.93,3,3.93,1.36,6.28-.26.36-.57.68-1,1.15.77.2,1.31.33,1.84.49,3.62,1.09,7.27,2.06,10.84,3.33,2.3.82,3.18,3,2.64,5.61-.5,2.42-2.13,3.83-4.54,3.68a39.53,39.53,0,0,1-4.13-.69L449.61,248c-.05.21-.09.42-.13.63.5.2,1,.43,1.51.59q9.74,3,19.48,5.94c1.88.57,3.36,1.57,3.51,3.87a4.55,4.55,0,0,1-3.35,4.57,8.34,8.34,0,0,1-3.29.35c-4.16-.46-8.31-1.09-12.46-1.59C448.87,261.67,442.87,261,436.63,260.3Z" transform="translate(-359 -210)"/><text class="cls-2" transform="translate(204.96 95.14) scale(0.77 1)"><tspan class="cls-3">Y</tspan><tspan x="41.24" y="0">ourSaathi</tspan></text></svg>