<?xml version="1.0" encoding="utf-8"?>
<!-- Generator: Adobe Illustrator 24.0.0, SVG Export Plug-In . SVG Version: 6.00 Build 0)  -->
<svg version="1.1" id="_x32_c32a5d1-9ebb-4e5f-946d-03caca411964"
	 xmlns="http://www.w3.org/2000/svg" xmlns:xlink="http://www.w3.org/1999/xlink" x="0px" y="0px" viewBox="0 0 790 731"
	 style="enable-background:new 0 0 790 731;" xml:space="preserve">
<style type="text/css">
	.st0{opacity:0.5;}
	.st1{fill:url(#SVGID_1_);}
	.st2{fill:#FFFFFF;}
	.st3{opacity:0.4;fill:#D311AF;enable-background:new    ;}
	.st4{fill:#DBDBDB;}
	.st5{fill:url(#SVGID_2_);}
	.st6{fill:#D311AF;}
	.st7{fill:url(#SVGID_3_);}
	.st8{fill:#47E6B1;}
	.st9{opacity:0.5;fill:#4D8AF0;enable-background:new    ;}
	.st10{opacity:0.5;fill:#F55F44;enable-background:new    ;}
	.st11{opacity:0.5;fill:#47E6B1;enable-background:new    ;}
	.st12{fill:#2F373B;}
	.st13{fill:#181E21;}
	.st14{fill:#F6F9F9;}
	.st15{fill:#EFB29A;}
	.st16{fill:#F9C5AC;}
	.st17{fill:#DD9F8A;}
	.st18{fill:#DAE4EA;}
	.st19{fill:#514850;}
</style>
<title>chating</title>
<g class="st0">
	
		<linearGradient id="SVGID_1_" gradientUnits="userSpaceOnUse" x1="461.4052" y1="-61.667" x2="745.9501" y2="610.2244" gradientTransform="matrix(1 -2.443458e-03 -2.443458e-03 -1 -216.7974 644.7587)">
		<stop  offset="0" style="stop-color:#808080;stop-opacity:0.25"/>
		<stop  offset="0.54" style="stop-color:#808080;stop-opacity:0.12"/>
		<stop  offset="1" style="stop-color:#808080;stop-opacity:0.1"/>
	</linearGradient>
	<path class="st1" d="M551.7,44l-332.5,0.8c-7.5,0-13.6,6.1-13.6,13.7c0,0,0,0,0,0l1.5,621.9c0,7.5,6.1,13.6,13.7,13.6c0,0,0,0,0,0
		l332.5-0.8c7.5,0,13.6-6.1,13.6-13.7c0,0,0,0,0,0l-1.5-621.9C565.3,50.1,559.2,44,551.7,44C551.7,44,551.7,44,551.7,44z"/>
</g>
<path class="st2" d="M224,53.3l322.8-0.8c7.5,0,13.7,6.1,13.7,13.6l1.5,604.7c0,7.5-6.1,13.7-13.6,13.7l-322.8,0.8
	c-7.5,0-13.7-6.1-13.7-13.6l-1.5-604.7C210.4,59.4,216.5,53.3,224,53.3z"/>
<path id="_x38_69b38ff-715e-463a-98e7-ca2bce61d391" class="st3" d="M469.5,68.5c-2.1,13.9-13.9,24.1-27.9,24.2L320.7,93
	c-14,0-25.9-10.2-28-24.1l-64,0.2c-7.3,0-13.3,6-13.3,13.3c0,0,0,0,0,0l1.4,573.7c0,7.3,6,13.3,13.3,13.3c0,0,0,0,0,0l306-0.7
	c7.3,0,13.3-6,13.3-13.3c0,0,0,0,0,0l-1.4-573.7c0-7.3-6-13.3-13.3-13.3h0L469.5,68.5z"/>
<path class="st4" d="M345.3,76.9l74-1.1c1.1,0,2,0.9,2,2l0,0.9c0,1.1-0.9,2-2,2l-74,1.1c-1.1,0-2-0.9-2-2l0-0.9
	C343.3,77.8,344.2,76.9,345.3,76.9z"/>
<circle class="st4" cx="437.9" cy="77.4" r="2.9"/>
<g class="st0">
	
		<linearGradient id="SVGID_2_" gradientUnits="userSpaceOnUse" x1="376.5" y1="304.5" x2="376.5" y2="489.39" gradientTransform="matrix(1 0 0 -1 -205 647.5)">
		<stop  offset="0" style="stop-color:#808080;stop-opacity:0.25"/>
		<stop  offset="0.54" style="stop-color:#808080;stop-opacity:0.12"/>
		<stop  offset="1" style="stop-color:#808080;stop-opacity:0.1"/>
	</linearGradient>
	<path class="st5" d="M5,158.1v142.7h224.9c0,0,16.6,32.7,45.1,42.2c0,0-9.1-23.1,0.4-42.2H338V158.1H5z"/>
</g>
<path class="st2" d="M14,163v135h225c0,0,0,27,27,36c0,0-9-18,0-36h63V163H14z"/>
<rect x="41" y="190" class="st6" width="180" height="18"/>
<rect x="41" y="217" class="st6" width="243" height="18"/>
<rect x="41" y="244" class="st6" width="216" height="18"/>
<g class="st0">
	
		<linearGradient id="SVGID_3_" gradientUnits="userSpaceOnUse" x1="2739.5" y1="29.5" x2="2739.5" y2="214.39" gradientTransform="matrix(-1 0 0 -1 3343 647.5)">
		<stop  offset="0" style="stop-color:#808080;stop-opacity:0.25"/>
		<stop  offset="0.54" style="stop-color:#808080;stop-opacity:0.12"/>
		<stop  offset="1" style="stop-color:#808080;stop-opacity:0.1"/>
	</linearGradient>
	<path class="st7" d="M770,433.1v142.7H545.2c0,0-16.6,32.7-45.2,42.2c0,0,9.1-23.1-0.4-42.2H437V433.1H770z"/>
</g>
<path class="st2" d="M761,438v135H536c0,0,0,27-27,36c0,0,9-18,0-36h-63V438H761z"/>
<rect x="483" y="465" class="st6" width="180" height="18"/>
<rect x="483" y="492" class="st6" width="243" height="18"/>
<rect x="483" y="519" class="st6" width="216" height="18"/>
<g class="st0">
	<rect x="84" y="714" class="st8" width="3" height="17"/>
	<rect x="77" y="721" class="st8" width="17" height="3"/>
</g>
<g class="st0">
	<rect x="633" y="192" class="st8" width="3" height="17"/>
	<rect x="626" y="199" class="st8" width="17" height="3"/>
</g>
<g class="st0">
	<rect x="697" y="612" class="st8" width="3" height="17"/>
	<rect x="690" y="619" class="st8" width="17" height="3"/>
</g>
<g class="st0">
	<rect x="508" class="st8" width="3" height="17"/>
	<rect x="501" y="7" class="st8" width="17" height="3"/>
</g>
<path class="st9" d="M258.7,712.3c-1.7-0.8-2.6-2.7-2-4.4c0-0.1,0.1-0.3,0.1-0.4l0,0c0.1-1-0.7-1.9-1.7-2c-0.6,0-1.2,0.2-1.6,0.7
	l0,0c-0.1,0.1-0.1,0.2-0.2,0.4c-0.8,1.7-2.7,2.6-4.4,2c-0.1,0-0.3-0.1-0.4-0.1l0,0c-1-0.1-1.9,0.7-2,1.7c0,0.6,0.2,1.2,0.7,1.6l0,0
	c0.1,0.1,0.2,0.1,0.4,0.2c1.7,0.8,2.6,2.7,2,4.4c0,0.1-0.1,0.3-0.1,0.4l0,0c-0.1,1,0.7,1.9,1.7,2c0.6,0,1.2-0.2,1.6-0.7l0,0
	c0.1-0.1,0.1-0.2,0.2-0.4c0.8-1.7,2.7-2.6,4.4-2c0.1,0,0.3,0.1,0.4,0.1l0,0c1,0.1,1.9-0.7,2-1.7c0-0.6-0.2-1.2-0.7-1.6l0,0
	C258.9,712.4,258.8,712.4,258.7,712.3z"/>
<path class="st9" d="M57.9,395c-1.7-0.8-2.6-2.7-2-4.4c0-0.1,0.1-0.3,0.1-0.4l0,0c0.1-1-0.7-1.9-1.7-2c-0.6,0-1.2,0.2-1.6,0.7l0,0
	c-0.1,0.1-0.1,0.2-0.2,0.4c-0.8,1.7-2.7,2.6-4.4,2c-0.1,0-0.3-0.1-0.4-0.1l0,0c-1-0.1-1.9,0.7-2,1.7c0,0.6,0.2,1.2,0.7,1.6l0,0
	c0.1,0.1,0.2,0.1,0.4,0.2c1.7,0.8,2.6,2.7,2,4.4c0,0.1-0.1,0.3-0.1,0.4l0,0c-0.1,1,0.6,1.9,1.6,2c0.7,0.1,1.3-0.2,1.7-0.8l0,0
	c0.1-0.1,0.1-0.2,0.2-0.4c0.8-1.7,2.7-2.6,4.4-2c0.1,0,0.3,0.1,0.4,0.1l0,0c1,0.1,1.9-0.7,2-1.7c0-0.6-0.2-1.2-0.7-1.6l0,0
	C58.2,395.1,58,395,57.9,395z"/>
<path class="st9" d="M166.9,482c-1.7-0.8-2.6-2.7-2-4.4c0-0.1,0.1-0.3,0.1-0.4l0,0c0.1-1-0.7-1.9-1.7-2c-0.6,0-1.2,0.2-1.6,0.7l0,0
	c-0.1,0.1-0.1,0.2-0.2,0.4c-0.8,1.7-2.7,2.6-4.4,2c-0.1,0-0.3-0.1-0.4-0.1l0,0c-1-0.1-1.9,0.7-2,1.7c0,0.6,0.2,1.2,0.7,1.6l0,0
	c0.1,0.1,0.2,0.1,0.4,0.2c1.7,0.8,2.6,2.7,2,4.4c0,0.1-0.1,0.3-0.1,0.4l0,0c-0.1,1,0.6,1.9,1.6,2c0.7,0.1,1.3-0.2,1.7-0.8l0,0
	c0.1-0.1,0.1-0.2,0.2-0.4c0.8-1.7,2.7-2.6,4.4-2c0.1,0,0.3,0.1,0.4,0.1l0,0c1,0.1,1.9-0.7,2-1.7c0-0.6-0.2-1.2-0.7-1.6l0,0
	C167.2,482.1,167,482,166.9,482z"/>
<path class="st9" d="M788.9,718c-1.7-0.8-2.6-2.7-2-4.4c0-0.1,0.1-0.3,0.1-0.4l0,0c0.1-1-0.7-1.9-1.7-2c-0.6,0-1.2,0.2-1.6,0.7l0,0
	c-0.1,0.1-0.1,0.2-0.2,0.4c-0.8,1.7-2.7,2.6-4.4,2c-0.1,0-0.3-0.1-0.4-0.1l0,0c-1-0.1-1.9,0.7-2,1.7c0,0.6,0.2,1.2,0.7,1.6l0,0
	c0.1,0.1,0.2,0.1,0.4,0.2c1.7,0.8,2.6,2.7,2,4.4c0,0.1-0.1,0.3-0.1,0.4l0,0c-0.1,1,0.6,1.9,1.6,2c0.7,0.1,1.3-0.2,1.7-0.8l0,0
	c0.1-0.1,0.1-0.2,0.2-0.4c0.8-1.7,2.7-2.6,4.4-2c0.1,0,0.3,0.1,0.4,0.1l0,0c1,0.1,1.9-0.7,2-1.7c0-0.6-0.2-1.2-0.7-1.6l0,0
	C789.2,718.1,789,718,788.9,718z"/>
<circle class="st10" cx="6" cy="659" r="6"/>
<circle class="st9" cx="683" cy="64" r="6"/>
<circle class="st11" cx="104" cy="76" r="6"/>
<circle class="st10" cx="689" cy="346" r="6"/>
<g>
	<path class="st2" d="M518,238.7c0,21.3-9.2,40.5-24,54c-1.1,1-90.4,12.4-104,0c-14.8-13.5-24-32.7-24-54c0-40.9,34-74.1,76-74.1
		S518,197.8,518,238.7z"/>
	<g>
		<path class="st6" d="M494,292.7c-13.6,12.4-31.9,20.1-52,20.1c-4.6,0-9.1-0.4-13.5-1.2c-14.8-2.6-28-9.3-38.5-18.9
			c6.1-28.3-1.5-50.1-3.1-65.8c0,0,0,0,0,0l21.7-2.4L442,221l55.1,6h0C495.5,242.6,488,264.4,494,292.7L494,292.7z"/>
		<path class="st6" d="M497.7,218.9c0,2.7-0.2,5.4-0.6,8c-4,26.2-27.1,46.3-55.1,46.3c-2.5,0-4.9-0.2-7.3-0.5
			c-24.6-3.1-44.2-21.9-47.8-45.8c0,0,0,0,0,0c-0.4-2.6-0.6-5.3-0.6-8c0-30,24.9-54.3,55.7-54.3C472.8,164.7,497.7,189,497.7,218.9z
			"/>
		<path class="st6" d="M434.7,272.7l8.1,15l-14.3,23.9c-14.8-2.6-28-9.3-38.5-18.9c6.1-28.3-1.5-50.1-3.1-65.8c0,0,0,0,0,0
			c-0.4-2.6-0.6-5.3-0.6-8c0-30,24.9-54.3,55.7-54.3c-8.6,0-11.8,13.7,1,17.8L406.7,221l2,3.6L434.7,272.7z"/>
		<path class="st12" d="M484.3,300.3c-3.7,2.4-7.6,4.5-11.6,6.2c-3.2,1.4-6.4,2.5-9.8,3.4c-6.6,1.8-13.6,2.8-20.8,2.8
			c-7.2,0-14.2-1-20.8-2.8c-2.1-0.6-4.3-1.3-6.3-2.1c-0.1,0-0.3-0.1-0.4-0.1c-1-0.4-2.1-0.8-3.1-1.2c-4.1-1.8-8-3.8-11.6-6.2
			c3.1-4.2,7.1-7.6,11.6-10.2c3-1.7,6.3-3,9.8-3.8c0.5-0.1,1.1-0.2,1.6-0.3c1-0.2,2.1-0.3,3.1-0.5c0.3,0,0.6-0.1,0.9-0.1
			c1-0.1,2-0.1,3-0.1h24.2c1.3,0,2.7,0.1,4,0.2c1.1,0.1,2.1,0.3,3.1,0.5c0.4,0.1,0.8,0.2,1.2,0.3c0.1,0,0.3,0.1,0.4,0.1
			c3.5,0.8,6.8,2.1,9.8,3.8C477.2,292.6,481.2,296.1,484.3,300.3z"/>
		<path class="st13" d="M429.9,285.2c-8.7,0-14.6,12.3-15.1,22.7c-0.1,0-0.3-0.1-0.4-0.1c-1-0.4-2.1-0.8-3.1-1.2
			c-4.1-1.8-8-3.8-11.6-6.2c3.1-4.2,7.1-7.6,11.6-10.2c3-1.7,6.3-3,9.8-3.8c0.5-0.1,1.1-0.2,1.6-0.3c1-0.2,2.1-0.3,3.1-0.5
			c0.3,0,0.6-0.1,0.9-0.1C427.8,285.3,428.9,285.2,429.9,285.2z"/>
		<path class="st14" d="M442,300.1l-15.7,8.5l-4.8-23.1l9.8-4.2"/>
		<path class="st14" d="M442,300.1l15.7,8.5l4.8-23.1l-9.8-4.2"/>
		<path class="st15" d="M455.3,271.3v15.9c0,5.8-3.9,10.7-9.3,12.4c-1.2,0.4-2.6,0.6-3.9,0.6c-7.3,0-13.3-5.8-13.3-12.9v-15.9
			L455.3,271.3L455.3,271.3z"/>
		<path class="st16" d="M455.3,286.1v1c0,5.8-3.9,10.7-9.3,12.4c-4.9-1.5-8.6-5.6-9.2-10.7c0.9,0.1,1.8,0.1,2.7,0.1
			c2.5,0,5-0.2,7.4-0.6C449.7,287.9,452.5,287.1,455.3,286.1L455.3,286.1z"/>
		<g>
			<path class="st16" d="M405.3,245.1c0,5.9-4.4,10.8-10.3,11.8c-0.6,0.1-1.3,0.2-2,0.2c-6.8,0-12.2-5.3-12.2-11.9
				c0-6.6,5.5-11.9,12.2-11.9c0.7,0,1.3,0.1,2,0.2C400.9,234.3,405.3,239.2,405.3,245.1L405.3,245.1z"/>
			<path class="st15" d="M405.3,245.1c0,5.9-4.4,10.8-10.3,11.8c-1.1-3.7-1.6-7.7-1.6-11.8s0.6-8,1.6-11.8
				C400.9,234.3,405.3,239.2,405.3,245.1z"/>
			<ellipse class="st15" cx="393.1" cy="245.1" rx="4.4" ry="4.3"/>
			<path class="st16" d="M478.6,245.1c0,5.9,4.4,10.8,10.3,11.8c0.6,0.1,1.3,0.2,2,0.2c6.8,0,12.2-5.3,12.2-11.9
				c0-6.6-5.5-11.9-12.2-11.9c-0.7,0-1.3,0.1-2,0.2C483.1,234.3,478.6,239.2,478.6,245.1L478.6,245.1z"/>
			<g>
				<path class="st15" d="M478.6,245.1c0,5.9,4.4,10.8,10.3,11.8c1.1-3.7,1.6-7.7,1.6-11.8s-0.6-8-1.6-11.8
					C483.1,234.3,478.6,239.2,478.6,245.1z"/>
				<ellipse class="st15" cx="490.9" cy="245.1" rx="4.4" ry="4.3"/>
			</g>
		</g>
		<path class="st16" d="M487.9,222.4v16.4c0,22.3-16.7,40.7-38.6,44.2c-2.3,0.4-4.7,0.6-7.2,0.6c-25.4,0.1-46.1-20.4-46.1-45.2v-16
			c0-23.9,19.9-43.3,44.4-43.3h3c10.6,0,20.2,3.6,27.9,9.6C481.5,196.6,487.9,208.8,487.9,222.4L487.9,222.4z"/>
		<path class="st15" d="M450.1,282.9c-0.2,0-0.5,0.1-0.7,0.1c-2.4,0.4-4.9,0.6-7.4,0.6c-25.4,0-45.9-20-45.9-44.8v-16.8l16.2-28.8
			v45.6C412.3,260.9,428.6,279.2,450.1,282.9z"/>
		<path class="st6" d="M462.6,192.4c0,0-11.8,28.4-67.6,41l1-21.8l9.5-19l26.7-9.4l25.1,5.2L462.6,192.4z"/>
		<g>
			<ellipse class="st15" cx="467.3" cy="250.4" rx="5.7" ry="5.5"/>
			<ellipse class="st15" cx="416.7" cy="250.4" rx="5.7" ry="5.5"/>
		</g>
		<path class="st6" d="M487.9,218.1l0.9,8.5l-0.9,6.2c-19.4-12-25.3-40.4-25.3-40.4l8.7-8C481.5,192.3,487.9,204.4,487.9,218.1z"/>
		<path class="st15" d="M447.2,250.8h-10.3c-1.2,0-2.2-1-2.2-2.2s1-2.2,2.2-2.2h10.3c1.2,0,2.2,1,2.2,2.2
			C449.4,249.9,448.4,250.8,447.2,250.8z"/>
		<path class="st17" d="M442,264.6c-3.8,0-7.6-0.9-11.1-2.8c-1-0.5-1.3-1.7-0.8-2.7c0.5-1,1.8-1.3,2.7-0.8c5.7,3.1,12.6,3.1,18.3,0
			c1-0.5,2.2-0.2,2.7,0.8c0.5,1,0.2,2.2-0.8,2.7C449.6,263.6,445.8,264.6,442,264.6L442,264.6z"/>
		<path class="st14" d="M488.5,218.8c0,2-0.2,4-0.4,6c-3.1-20.9-22.6-36.9-46.1-36.9c-2.5,0-5,0.2-7.5,0.6c-6,0.9-11.5,2.8-16.5,5.6
			c-11.8,6.5-20.1,17.7-22.1,30.8c-0.3-2-0.4-3.9-0.4-6c0-15.6,9-29.3,22.6-36.8c5-2.8,10.5-4.7,16.5-5.6c2.4-0.4,4.9-0.6,7.5-0.6
			C467.7,176,488.5,195.2,488.5,218.8L488.5,218.8z"/>
		<path class="st18" d="M418,182.1V194c-11.8,6.5-20.1,17.7-22.1,30.8c-0.3-2-0.4-3.9-0.4-6C395.5,203.2,404.5,189.6,418,182.1z"/>
		<path class="st19" d="M489.2,204.6c-2.4,0-4.4,1.9-4.4,4.3c0,5.1-4.2,9.2-9.5,9.2h-30.1h-6.4h-30.1c-5.2,0-9.5-4.1-9.5-9.2
			c0-2.4-2-4.3-4.4-4.3s-4.4,1.9-4.4,4.3v33c0,8.1,6.7,14.6,15,14.6h9.8c9.4,0,17.8-4.2,23.3-10.8c1.8-2.2,5.2-2.2,7.1,0
			c5.5,6.6,13.9,10.8,23.3,10.8h9.8c8.3,0,15-6.5,15-14.6v-33C493.5,206.5,491.6,204.6,489.2,204.6z"/>
		<g>
			<ellipse class="st15" cx="424.7" cy="239.8" rx="12.2" ry="7.5"/>
			<ellipse class="st15" cx="459.3" cy="239.8" rx="12.2" ry="7.5"/>
		</g>
		<g>
			<ellipse class="st12" cx="458.5" cy="239.3" rx="6.5" ry="6.4"/>
			<ellipse class="st2" cx="461.3" cy="238.2" rx="2.8" ry="2.7"/>
			<ellipse class="st12" cx="425.4" cy="239.3" rx="6.5" ry="6.4"/>
			<path class="st13" d="M426.9,245.5c-0.5,0.1-1,0.2-1.5,0.2c-3.6,0-6.5-2.9-6.5-6.4c0-3.5,2.9-6.4,6.5-6.4c0.5,0,1,0.1,1.5,0.2
				c-2.9,0.7-5.1,3.2-5.1,6.2C421.8,242.3,424,244.9,426.9,245.5z"/>
			<path class="st13" d="M460,245.5c-0.5,0.1-1,0.2-1.5,0.2c-3.6,0-6.5-2.9-6.5-6.4c0-3.5,2.9-6.4,6.5-6.4c0.5,0,1,0.1,1.5,0.2
				c-2.9,0.7-5.1,3.2-5.1,6.2C455,242.3,457.1,244.9,460,245.5z"/>
			<ellipse class="st2" cx="428.2" cy="238.2" rx="2.8" ry="2.7"/>
		</g>
		<path class="st12" d="M478.7,249.4h6.5v47.9h-6.5V249.4z"/>
		<path class="st16" d="M490.8,295.5c-4.9,4-10.4,7.4-16.2,10.1c-0.7-1.2-1.1-2.6-1.1-4.2v-4.6c0-4.7,3.9-8.5,8.7-8.5
			C486.5,288.4,490.1,291.5,490.8,295.5L490.8,295.5z"/>
		<path class="st15" d="M479.6,296.9v4.6c0,0.5,0,1,0.1,1.5c-1.7,1-3.5,1.8-5.2,2.7c-0.7-1.2-1.1-2.6-1.1-4.2v-4.6
			c0-4.7,3.9-8.5,8.7-8.5c1.1,0,2.1,0.2,3.1,0.6C482,290.2,479.6,293.3,479.6,296.9L479.6,296.9z"/>
	</g>
</g>
<g>
	<path class="st2" d="M388.4,495.4c0,21.3-9.2,40.5-24,54c-1.1,1-90.4,12.4-104,0c-14.8-13.5-24-32.7-24-54c0-40.9,34-74.1,76-74.1
		S388.4,454.5,388.4,495.4z"/>
	<g>
		<path class="st6" d="M364.4,549.4c-13.6,12.4-31.9,20.1-52,20.1c-4.6,0-9.1-0.4-13.5-1.2c-14.8-2.6-28-9.3-38.5-18.9
			c6.1-28.3-1.5-50.1-3.1-65.8c0,0,0,0,0,0l21.7-2.4l33.3-3.6l55.1,6h0C365.9,499.3,358.4,521.2,364.4,549.4L364.4,549.4z"/>
		<path class="st6" d="M368.1,475.7c0,2.7-0.2,5.4-0.6,8c-4,26.2-27.1,46.3-55.1,46.3c-2.5,0-4.9-0.2-7.3-0.5
			c-24.6-3.1-44.2-21.9-47.8-45.8c0,0,0,0,0,0c-0.4-2.6-0.6-5.3-0.6-8c0-30,24.9-54.3,55.7-54.3
			C343.2,421.4,368.1,445.7,368.1,475.7z"/>
		<path class="st6" d="M305.1,529.5l8.1,15l-14.3,23.9c-14.8-2.6-28-9.3-38.5-18.9c6.1-28.3-1.5-50.1-3.1-65.8c0,0,0,0,0,0
			c-0.4-2.6-0.6-5.3-0.6-8c0-30,24.9-54.3,55.7-54.3c-8.6,0-11.8,13.7,1,17.8l-36.3,38.5l2,3.6L305.1,529.5z"/>
		<path class="st12" d="M354.7,557c-3.7,2.4-7.6,4.5-11.6,6.2c-3.2,1.4-6.4,2.5-9.8,3.4c-6.6,1.8-13.6,2.8-20.8,2.8
			c-7.2,0-14.2-1-20.8-2.8c-2.1-0.6-4.3-1.3-6.3-2.1c-0.1,0-0.3-0.1-0.4-0.1c-1-0.4-2.1-0.8-3.1-1.2c-4.1-1.8-8-3.8-11.6-6.2
			c3.1-4.2,7.1-7.6,11.6-10.2c3-1.7,6.3-3,9.8-3.8c0.5-0.1,1.1-0.2,1.6-0.3c1-0.2,2.1-0.3,3.1-0.5c0.3,0,0.6-0.1,0.9-0.1
			c1-0.1,2-0.1,3-0.1h24.2c1.3,0,2.7,0.1,4,0.2c1.1,0.1,2.1,0.3,3.1,0.5c0.4,0.1,0.8,0.2,1.2,0.3c0.1,0,0.3,0.1,0.4,0.1
			c3.5,0.8,6.8,2.1,9.8,3.8C347.6,549.4,351.6,552.8,354.7,557z"/>
		<path class="st13" d="M300.3,542c-8.7,0-14.6,12.3-15.1,22.7c-0.1,0-0.3-0.1-0.4-0.1c-1-0.4-2.1-0.8-3.1-1.2
			c-4.1-1.8-8-3.8-11.6-6.2c3.1-4.2,7.1-7.6,11.6-10.2c3-1.7,6.3-3,9.8-3.8c0.5-0.1,1.1-0.2,1.6-0.3c1-0.2,2.1-0.3,3.1-0.5
			c0.3,0,0.6-0.1,0.9-0.1C298.3,542,299.3,542,300.3,542z"/>
		<path class="st14" d="M312.4,556.8l-15.7,8.5l-4.8-23.1l9.8-4.2"/>
		<path class="st14" d="M312.4,556.8l15.7,8.5l4.8-23.1l-9.8-4.2"/>
		<path class="st15" d="M325.7,528v15.9c0,5.8-3.9,10.7-9.3,12.4c-1.2,0.4-2.6,0.6-3.9,0.6c-7.3,0-13.3-5.8-13.3-12.9V528L325.7,528
			L325.7,528z"/>
		<path class="st16" d="M325.7,542.9v1c0,5.8-3.9,10.7-9.3,12.4c-4.9-1.5-8.6-5.6-9.2-10.7c0.9,0.1,1.8,0.1,2.7,0.1
			c2.5,0,5-0.2,7.4-0.6C320.1,544.6,323,543.9,325.7,542.9L325.7,542.9z"/>
		<g>
			<path class="st16" d="M275.8,501.9c0,5.9-4.4,10.8-10.3,11.8c-0.6,0.1-1.3,0.2-2,0.2c-6.8,0-12.2-5.3-12.2-11.9
				s5.5-11.9,12.2-11.9c0.7,0,1.3,0.1,2,0.2C271.3,491,275.8,495.9,275.8,501.9L275.8,501.9z"/>
			<path class="st15" d="M275.8,501.9c0,5.9-4.4,10.8-10.3,11.8c-1.1-3.7-1.6-7.7-1.6-11.8s0.6-8,1.6-11.8
				C271.3,491,275.8,495.9,275.8,501.9z"/>
			<ellipse class="st15" cx="263.5" cy="501.9" rx="4.4" ry="4.3"/>
			<path class="st16" d="M349.1,501.9c0,5.9,4.4,10.8,10.3,11.8c0.6,0.1,1.3,0.2,2,0.2c6.8,0,12.2-5.3,12.2-11.9
				s-5.5-11.9-12.2-11.9c-0.7,0-1.3,0.1-2,0.2C353.5,491,349.1,495.9,349.1,501.9L349.1,501.9z"/>
			<g>
				<path class="st15" d="M349.1,501.9c0,5.9,4.4,10.8,10.3,11.8c1.1-3.7,1.6-7.7,1.6-11.8s-0.6-8-1.6-11.8
					C353.5,491,349.1,495.9,349.1,501.9z"/>
				<ellipse class="st15" cx="361.3" cy="501.9" rx="4.4" ry="4.3"/>
			</g>
		</g>
		<path class="st16" d="M358.3,479.1v16.4c0,22.3-16.7,40.7-38.6,44.2c-2.3,0.4-4.7,0.6-7.2,0.6c-25.4,0.1-46.1-20.4-46.1-45.2v-16
			c0-23.9,19.9-43.3,44.4-43.3h3c10.6,0,20.2,3.6,27.9,9.6C351.9,453.4,358.3,465.5,358.3,479.1L358.3,479.1z"/>
		<path class="st15" d="M320.5,539.7c-0.2,0-0.5,0.1-0.7,0.1c-2.4,0.4-4.9,0.6-7.4,0.6c-25.4,0-45.9-20-45.9-44.8v-16.8l16.2-28.8
			v45.6C282.7,517.6,299,535.9,320.5,539.7z"/>
		<path class="st6" d="M333.1,449.1c0,0-11.8,28.4-67.6,41l1-21.8l9.5-19l26.7-9.4l25.1,5.2L333.1,449.1z"/>
		<g>
			<ellipse class="st15" cx="337.7" cy="507.2" rx="5.7" ry="5.5"/>
			<ellipse class="st15" cx="287.1" cy="507.2" rx="5.7" ry="5.5"/>
		</g>
		<path class="st6" d="M358.3,474.8l0.9,8.5l-0.9,6.2c-19.4-12-25.3-40.4-25.3-40.4l8.7-8C351.9,449,358.3,461.2,358.3,474.8z"/>
		<path class="st15" d="M317.6,507.6h-10.3c-1.2,0-2.2-1-2.2-2.2c0-1.2,1-2.2,2.2-2.2h10.3c1.2,0,2.2,1,2.2,2.2
			C319.8,506.6,318.8,507.6,317.6,507.6z"/>
		<path class="st17" d="M312.4,521.3c-3.8,0-7.6-0.9-11.1-2.8c-1-0.5-1.3-1.7-0.8-2.7c0.5-1,1.8-1.3,2.7-0.8
			c5.7,3.1,12.6,3.1,18.3,0c1-0.5,2.2-0.2,2.7,0.8c0.5,1,0.2,2.2-0.8,2.7C320,520.4,316.2,521.3,312.4,521.3L312.4,521.3z"/>
		<path class="st14" d="M358.9,475.6c0,2-0.2,4-0.4,6c-3.1-20.9-22.6-36.9-46.1-36.9c-2.5,0-5,0.2-7.5,0.6c-6,0.9-11.5,2.8-16.5,5.6
			c-11.8,6.5-20.1,17.7-22.1,30.8c-0.3-2-0.4-3.9-0.4-6c0-15.6,9-29.3,22.6-36.8c5-2.8,10.5-4.7,16.5-5.6c2.4-0.4,4.9-0.6,7.5-0.6
			C338.1,432.7,358.9,451.9,358.9,475.6L358.9,475.6z"/>
		<path class="st18" d="M288.5,438.8v11.9c-11.8,6.5-20.1,17.7-22.1,30.8c-0.3-2-0.4-3.9-0.4-6C265.9,460,274.9,446.3,288.5,438.8z"
			/>
		<path class="st19" d="M359.6,461.3c-2.4,0-4.4,1.9-4.4,4.3c0,5.1-4.2,9.2-9.5,9.2h-30.1h-6.4h-30.1c-5.2,0-9.5-4.1-9.5-9.2
			c0-2.4-2-4.3-4.4-4.3c-2.4,0-4.4,1.9-4.4,4.3v33c0,8.1,6.7,14.6,15,14.6h9.8c9.4,0,17.8-4.2,23.3-10.8c1.8-2.2,5.2-2.2,7.1,0
			c5.5,6.6,13.9,10.8,23.3,10.8h9.8c8.3,0,15-6.5,15-14.6v-33C364,463.2,362,461.3,359.6,461.3z"/>
		<g>
			<ellipse class="st15" cx="295.1" cy="496.5" rx="12.2" ry="7.5"/>
			<ellipse class="st15" cx="329.7" cy="496.5" rx="12.2" ry="7.5"/>
		</g>
		<g>
			<ellipse class="st12" cx="329" cy="496" rx="6.5" ry="6.4"/>
			<ellipse class="st2" cx="331.7" cy="494.9" rx="2.8" ry="2.7"/>
			<ellipse class="st12" cx="295.9" cy="496" rx="6.5" ry="6.4"/>
			<path class="st13" d="M297.3,502.2c-0.5,0.1-1,0.2-1.5,0.2c-3.6,0-6.5-2.9-6.5-6.4c0-3.5,2.9-6.4,6.5-6.4c0.5,0,1,0.1,1.5,0.2
				c-2.9,0.7-5.1,3.2-5.1,6.2C292.3,499.1,294.4,501.6,297.3,502.2z"/>
			<path class="st13" d="M330.4,502.2c-0.5,0.1-1,0.2-1.5,0.2c-3.6,0-6.5-2.9-6.5-6.4c0-3.5,2.9-6.4,6.5-6.4c0.5,0,1,0.1,1.5,0.2
				c-2.9,0.7-5.1,3.2-5.1,6.2C325.4,499.1,327.5,501.6,330.4,502.2z"/>
			<ellipse class="st2" cx="298.6" cy="494.9" rx="2.8" ry="2.7"/>
		</g>
		<path class="st12" d="M349.1,506.2h6.5v47.9h-6.5V506.2z"/>
		<path class="st16" d="M361.2,552.3c-4.9,4-10.4,7.4-16.2,10.1c-0.7-1.2-1.1-2.6-1.1-4.2v-4.6c0-4.7,3.9-8.5,8.7-8.5
			C356.9,545.1,360.5,548.2,361.2,552.3L361.2,552.3z"/>
		<path class="st15" d="M350,553.6v4.6c0,0.5,0,1,0.1,1.5c-1.7,1-3.5,1.8-5.2,2.7c-0.7-1.2-1.1-2.6-1.1-4.2v-4.6
			c0-4.7,3.9-8.5,8.7-8.5c1.1,0,2.1,0.2,3.1,0.6C352.4,546.9,350,550,350,553.6L350,553.6z"/>
	</g>
</g>
</svg>
